<svg width="36" height="37" viewBox="0 0 36 37" fill="none" xmlns="http://www.w3.org/2000/svg">
<g clip-path="url(#clip0_897_1103)">
<path d="M20 14.5H16C15.7348 14.5 15.4804 14.6054 15.2929 14.7929C15.1054 14.9804 15 15.2348 15 15.5V21.5C15 21.7652 15.1054 22.0196 15.2929 22.2071C15.4804 22.3946 15.7348 22.5 16 22.5H20C20.2652 22.5 20.5196 22.3946 20.7071 22.2071C20.8946 22.0196 21 21.7652 21 21.5V15.5C21 15.2348 20.8946 14.9804 20.7071 14.7929C20.5196 14.6054 20.2652 14.5 20 14.5ZM19.6 21.1H16.4V15.9H19.6V21.1Z" fill="#471443"/>
<path d="M33.71 12.88L29.62 8.79C29.4338 8.60526 29.1824 8.5011 28.92 8.5H23.92V6.55C23.9336 6.02455 23.7397 5.51489 23.3804 5.13125C23.0211 4.74762 22.5252 4.52085 22 4.5H13.84C13.5834 4.5101 13.3313 4.57159 13.0989 4.68084C12.8664 4.79009 12.6582 4.94488 12.4867 5.13603C12.3151 5.32718 12.1836 5.55082 12.1 5.79369C12.0164 6.03657 11.9824 6.29375 12 6.55V8.5H7.08002C6.94841 8.49924 6.81795 8.52446 6.69611 8.57423C6.57427 8.62399 6.46346 8.69732 6.37002 8.79L2.29002 12.88C2.19734 12.9734 2.12401 13.0843 2.07425 13.2061C2.02448 13.3279 1.99926 13.4584 2.00002 13.59V28.5C2.00002 29.0304 2.21073 29.5391 2.5858 29.9142C2.96088 30.2893 3.46958 30.5 4.00002 30.5H32C32.5305 30.5 33.0392 30.2893 33.4142 29.9142C33.7893 29.5391 34 29.0304 34 28.5V13.58C33.9989 13.3177 33.8948 13.0663 33.71 12.88ZM14 6.5H22V8.5H14V6.5ZM32 17.5H22V19.43H32V28.5H4.00002V19.43H14V17.5H4.00002V14L7.50002 10.5H28.5L32 14V17.5Z" fill="#471443"/>
</g>
<defs>
<clipPath id="clip0_897_1103">
<rect width="36" height="36" fill="white" transform="translate(0 0.5)"/>
</clipPath>
</defs>
</svg>
