
<svg width="735" height="776" viewBox="0 0 735 776" fill="none" xmlns="http://www.w3.org/2000/svg">
<g filter="url(#filter0_f_183_322)">
<ellipse cx="367.5" cy="407.5" rx="217.5" ry="218.5" fill="#8E5E8A"/>
</g>
<path d="M416.647 620.132C373.148 627.25 328.559 623.343 286.961 608.769L317.18 522.52C344.351 532.04 373.475 534.592 401.887 529.942L416.647 620.132Z" fill="#8E5E8A"/>
<g filter="url(#filter1_d_183_322)">
<path d="M459.253 608.252C438.064 617.289 415.781 623.509 392.974 626.752L382.46 552.815C398.803 550.491 414.77 546.034 429.954 539.558L459.253 608.252Z" fill="#5865F2"/>
</g>
<g filter="url(#filter2_d_183_322)">
<path d="M513.808 580.566C495.57 596.014 475.314 608.909 453.599 618.896L421.825 549.807C437.273 542.702 451.683 533.529 464.658 522.539L513.808 580.566Z" fill="#26A17B"/>
</g>
<g filter="url(#filter3_d_183_322)">
<path d="M597.4 408.631C596.399 443.22 588.596 477.273 574.434 508.846C560.273 540.419 540.032 568.893 514.866 592.643L456.661 530.969C473.727 514.863 487.454 495.552 497.058 474.141C506.661 452.729 511.954 429.635 512.632 406.178L597.4 408.631Z" fill="#F7931A"/>
</g>
<g filter="url(#filter4_d_183_322)">
<path d="M529.373 225.779C577.956 276.014 604.594 343.49 603.427 413.365L476.834 411.25C477.44 374.95 463.602 339.896 438.362 313.799L529.373 225.779Z" fill="#B6BA64"/>
</g>
<g filter="url(#filter5_d_183_322)">
<path d="M321.32 171.059C360.178 162.579 400.452 163.006 439.122 172.307C477.792 181.608 513.855 199.542 544.606 224.766L462.239 325.187C446.645 312.396 428.358 303.301 408.748 298.585C389.139 293.868 368.716 293.652 349.011 297.952L321.32 171.059Z" fill="#471443"/>
</g>
<g filter="url(#filter6_d_183_322)">
<path d="M138.983 316.844C155.095 277.865 180.328 243.322 212.563 216.12C244.798 188.919 283.092 169.853 324.225 160.525L344.979 252.043C318.495 258.049 293.839 270.325 273.084 287.839C252.329 305.353 236.082 327.594 225.708 352.691L138.983 316.844Z" fill="#9747FF"/>
</g>
<g filter="url(#filter7_d_183_322)">
<path d="M323.426 670.964C285.689 662.746 250.22 646.332 219.53 622.885C188.84 599.438 163.68 569.531 145.83 535.281C127.981 501.032 117.878 463.278 116.238 424.691C114.598 386.104 121.46 347.628 136.339 311.988L258.38 362.936C250.969 380.689 247.551 399.854 248.368 419.074C249.185 438.294 254.217 457.1 263.108 474.16C271.999 491.22 284.532 506.116 299.818 517.795C315.105 529.474 332.772 537.65 351.569 541.744L323.426 670.964Z" fill="#F95858"/>
</g>
<circle cx="369.5" cy="408.5" r="157.5" fill="#1E1E1E"/>
<path d="M75.4347 516.571V514.685L80.9893 505.909H82.5618V508.594H81.603L77.8636 514.519V514.621H85.6172V516.571H75.4347ZM81.6797 519V515.996L81.7053 515.152V505.909H83.9425V519H81.6797ZM92.4982 519.249C91.4457 519.249 90.5423 518.983 89.788 518.45C89.038 517.913 88.4606 517.14 88.0558 516.13C87.6552 515.116 87.4549 513.895 87.4549 512.467C87.4592 511.04 87.6616 509.825 88.0621 508.824C88.467 507.818 89.0444 507.051 89.7944 506.523C90.5487 505.994 91.4499 505.73 92.4982 505.73C93.5465 505.73 94.4478 505.994 95.2021 506.523C95.9563 507.051 96.5337 507.818 96.9343 508.824C97.3391 509.83 97.5415 511.044 97.5415 512.467C97.5415 513.899 97.3391 515.122 96.9343 516.136C96.5337 517.146 95.9563 517.918 95.2021 518.45C94.4521 518.983 93.5508 519.249 92.4982 519.249ZM92.4982 517.249C93.3164 517.249 93.962 516.846 94.435 516.04C94.9123 515.231 95.1509 514.04 95.1509 512.467C95.1509 511.428 95.0423 510.554 94.8249 509.847C94.6076 509.139 94.3008 508.607 93.9045 508.249C93.5082 507.886 93.0394 507.705 92.4982 507.705C91.6843 507.705 91.0408 508.11 90.5678 508.92C90.0948 509.725 89.8562 510.908 89.8519 512.467C89.8477 513.511 89.9521 514.389 90.1651 515.101C90.3825 515.812 90.6893 516.349 91.0856 516.712C91.4819 517.07 91.9528 517.249 92.4982 517.249ZM106.665 516.545V515.855C106.665 515.348 106.771 514.881 106.984 514.455C107.202 514.029 107.517 513.686 107.93 513.426C108.344 513.166 108.844 513.036 109.432 513.036C110.037 513.036 110.545 513.166 110.954 513.426C111.363 513.682 111.672 514.023 111.881 514.449C112.094 514.875 112.2 515.344 112.2 515.855V516.545C112.2 517.053 112.094 517.519 111.881 517.945C111.667 518.371 111.354 518.714 110.941 518.974C110.532 519.234 110.029 519.364 109.432 519.364C108.836 519.364 108.331 519.234 107.917 518.974C107.504 518.714 107.191 518.371 106.978 517.945C106.769 517.519 106.665 517.053 106.665 516.545ZM108.333 515.855V516.545C108.333 516.882 108.414 517.191 108.576 517.472C108.738 517.754 109.023 517.894 109.432 517.894C109.846 517.894 110.129 517.756 110.282 517.479C110.44 517.197 110.519 516.886 110.519 516.545V515.855C110.519 515.514 110.444 515.203 110.295 514.922C110.146 514.636 109.858 514.494 109.432 514.494C109.032 514.494 108.748 514.636 108.582 514.922C108.416 515.203 108.333 515.514 108.333 515.855ZM100.01 509.054V508.364C100.01 507.852 100.119 507.384 100.336 506.957C100.554 506.531 100.869 506.19 101.282 505.935C101.696 505.675 102.197 505.545 102.785 505.545C103.385 505.545 103.89 505.675 104.3 505.935C104.713 506.19 105.024 506.531 105.233 506.957C105.442 507.384 105.546 507.852 105.546 508.364V509.054C105.546 509.565 105.439 510.034 105.226 510.46C105.018 510.882 104.706 511.221 104.293 511.477C103.88 511.732 103.377 511.86 102.785 511.86C102.184 511.86 101.677 511.732 101.263 511.477C100.854 511.221 100.543 510.88 100.33 510.454C100.117 510.028 100.01 509.561 100.01 509.054ZM101.692 508.364V509.054C101.692 509.395 101.77 509.706 101.928 509.987C102.09 510.264 102.376 510.403 102.785 510.403C103.194 510.403 103.475 510.264 103.628 509.987C103.786 509.706 103.865 509.395 103.865 509.054V508.364C103.865 508.023 103.79 507.712 103.641 507.43C103.492 507.145 103.206 507.002 102.785 507.002C102.38 507.002 102.096 507.145 101.934 507.43C101.773 507.716 101.692 508.027 101.692 508.364ZM100.739 519L109.739 505.909H111.337L102.337 519H100.739Z" fill="white"/>
<path d="M18.6477 541V527.909H26.5483V529.315H20.233V533.739H26.1392V535.145H20.233V539.594H26.6506V541H18.6477ZM33.1896 541.205C32.2692 541.205 31.4766 540.987 30.8118 540.553C30.147 540.118 29.6357 539.519 29.2777 538.756C28.9197 537.994 28.7408 537.122 28.7408 536.142C28.7408 535.145 28.924 534.265 29.2905 533.502C29.6612 532.735 30.1768 532.136 30.8374 531.706C31.5021 531.271 32.2777 531.054 33.1641 531.054C33.8544 531.054 34.4766 531.182 35.0305 531.438C35.5845 531.693 36.0384 532.051 36.392 532.511C36.7457 532.972 36.9652 533.509 37.0504 534.122H35.5419C35.4268 533.675 35.1712 533.278 34.7749 532.933C34.3828 532.584 33.8544 532.409 33.1896 532.409C32.6016 532.409 32.0859 532.562 31.6428 532.869C31.2038 533.172 30.8608 533.6 30.6136 534.154C30.3707 534.704 30.2493 535.349 30.2493 536.091C30.2493 536.849 30.3686 537.51 30.6072 538.072C30.8501 538.635 31.1911 539.072 31.63 539.383C32.0732 539.694 32.593 539.849 33.1896 539.849C33.5817 539.849 33.9375 539.781 34.2571 539.645C34.5767 539.509 34.8473 539.312 35.0689 539.057C35.2905 538.801 35.4482 538.494 35.5419 538.136H37.0504C36.9652 538.716 36.7543 539.238 36.4176 539.702C36.0852 540.163 35.6442 540.529 35.0945 540.802C34.549 541.07 33.9141 541.205 33.1896 541.205ZM43.2443 541.205C42.358 541.205 41.5803 540.994 40.9112 540.572C40.2464 540.15 39.7266 539.56 39.3516 538.801C38.9808 538.043 38.7955 537.156 38.7955 536.142C38.7955 535.119 38.9808 534.227 39.3516 533.464C39.7266 532.701 40.2464 532.109 40.9112 531.687C41.5803 531.265 42.358 531.054 43.2443 531.054C44.1307 531.054 44.9063 531.265 45.571 531.687C46.2401 532.109 46.7599 532.701 47.1307 533.464C47.5057 534.227 47.6932 535.119 47.6932 536.142C47.6932 537.156 47.5057 538.043 47.1307 538.801C46.7599 539.56 46.2401 540.15 45.571 540.572C44.9063 540.994 44.1307 541.205 43.2443 541.205ZM43.2443 539.849C43.9176 539.849 44.4716 539.677 44.9062 539.332C45.3409 538.987 45.6626 538.533 45.8714 537.97C46.0803 537.408 46.1847 536.798 46.1847 536.142C46.1847 535.486 46.0803 534.874 45.8714 534.308C45.6626 533.741 45.3409 533.283 44.9062 532.933C44.4716 532.584 43.9176 532.409 43.2443 532.409C42.571 532.409 42.017 532.584 41.5824 532.933C41.1477 533.283 40.826 533.741 40.6172 534.308C40.4084 534.874 40.304 535.486 40.304 536.142C40.304 536.798 40.4084 537.408 40.6172 537.97C40.826 538.533 41.1477 538.987 41.5824 539.332C42.017 539.677 42.571 539.849 43.2443 539.849ZM56.9505 533.381L55.5953 533.764C55.5101 533.538 55.3844 533.319 55.2182 533.106C55.0563 532.888 54.8347 532.71 54.5534 532.569C54.2722 532.428 53.9121 532.358 53.4732 532.358C52.8723 532.358 52.3716 532.496 51.9711 532.773C51.5748 533.046 51.3766 533.393 51.3766 533.815C51.3766 534.19 51.513 534.487 51.7857 534.704C52.0584 534.921 52.4846 535.102 53.0641 535.247L54.5215 535.605C55.3993 535.818 56.0534 536.144 56.4838 536.583C56.9142 537.018 57.1294 537.578 57.1294 538.264C57.1294 538.827 56.9675 539.33 56.6436 539.773C56.324 540.216 55.8766 540.565 55.3013 540.821C54.726 541.077 54.057 541.205 53.2942 541.205C52.2928 541.205 51.464 540.987 50.8077 540.553C50.1515 540.118 49.736 539.483 49.5613 538.648L50.9931 538.29C51.1294 538.818 51.3873 539.214 51.7665 539.479C52.15 539.743 52.6507 539.875 53.2686 539.875C53.9718 539.875 54.53 539.726 54.9434 539.428C55.361 539.125 55.5698 538.763 55.5698 538.341C55.5698 538 55.4505 537.714 55.2118 537.484C54.9732 537.25 54.6067 537.075 54.1124 536.96L52.476 536.577C51.5769 536.364 50.9164 536.033 50.4945 535.586C50.0769 535.134 49.8681 534.57 49.8681 533.892C49.8681 533.338 50.0236 532.848 50.3347 532.422C50.65 531.996 51.0783 531.661 51.6195 531.418C52.165 531.175 52.7828 531.054 53.4732 531.054C54.4448 531.054 55.2076 531.267 55.7615 531.693C56.3198 532.119 56.7161 532.682 56.9505 533.381ZM60.3718 544.682C60.1161 544.682 59.8881 544.661 59.6879 544.618C59.4876 544.58 59.3491 544.541 59.2724 544.503L59.6559 543.173C60.0224 543.267 60.3462 543.301 60.6275 543.276C60.9087 543.25 61.158 543.124 61.3754 542.898C61.5969 542.677 61.7994 542.317 61.9826 541.818L62.2638 541.051L58.6332 531.182H60.2695L62.9798 539.006H63.082L65.7923 531.182H67.4286L63.261 542.432C63.0735 542.939 62.8413 543.359 62.5643 543.691C62.2873 544.028 61.9656 544.277 61.5991 544.439C61.2369 544.601 60.8278 544.682 60.3718 544.682ZM76.3743 533.381L75.0192 533.764C74.9339 533.538 74.8082 533.319 74.642 533.106C74.4801 532.888 74.2585 532.71 73.9773 532.569C73.696 532.428 73.3359 532.358 72.897 532.358C72.2962 532.358 71.7955 532.496 71.3949 532.773C70.9986 533.046 70.8004 533.393 70.8004 533.815C70.8004 534.19 70.9368 534.487 71.2095 534.704C71.4822 534.921 71.9084 535.102 72.4879 535.247L73.9453 535.605C74.8232 535.818 75.4773 536.144 75.9077 536.583C76.3381 537.018 76.5533 537.578 76.5533 538.264C76.5533 538.827 76.3913 539.33 76.0675 539.773C75.7479 540.216 75.3004 540.565 74.7251 540.821C74.1499 541.077 73.4808 541.205 72.718 541.205C71.7166 541.205 70.8878 540.987 70.2315 540.553C69.5753 540.118 69.1598 539.483 68.9851 538.648L70.4169 538.29C70.5533 538.818 70.8111 539.214 71.1903 539.479C71.5739 539.743 72.0746 539.875 72.6925 539.875C73.3956 539.875 73.9538 539.726 74.3672 539.428C74.7848 539.125 74.9936 538.763 74.9936 538.341C74.9936 538 74.8743 537.714 74.6357 537.484C74.397 537.25 74.0305 537.075 73.5362 536.96L71.8999 536.577C71.0007 536.364 70.3402 536.033 69.9183 535.586C69.5007 535.134 69.2919 534.57 69.2919 533.892C69.2919 533.338 69.4474 532.848 69.7585 532.422C70.0739 531.996 70.5021 531.661 71.0433 531.418C71.5888 531.175 72.2067 531.054 72.897 531.054C73.8686 531.054 74.6314 531.267 75.1854 531.693C75.7436 532.119 76.1399 532.682 76.3743 533.381ZM83.0939 531.182V532.46H78.0059V531.182H83.0939ZM79.4888 528.83H80.9973V538.188C80.9973 538.614 81.0591 538.933 81.1827 539.146C81.3105 539.355 81.4725 539.496 81.6685 539.568C81.8688 539.636 82.0797 539.67 82.3013 539.67C82.4675 539.67 82.6039 539.662 82.7104 539.645C82.8169 539.624 82.9022 539.607 82.9661 539.594L83.2729 540.949C83.1706 540.987 83.0279 541.026 82.8446 541.064C82.6614 541.107 82.4292 541.128 82.1479 541.128C81.7218 541.128 81.3042 541.036 80.8951 540.853C80.4902 540.67 80.1536 540.391 79.8851 540.016C79.6209 539.641 79.4888 539.168 79.4888 538.597V528.83ZM89.3741 541.205C88.4281 541.205 87.612 540.996 86.926 540.578C86.2441 540.156 85.7179 539.568 85.3471 538.814C84.9806 538.055 84.7974 537.173 84.7974 536.168C84.7974 535.162 84.9806 534.276 85.3471 533.509C85.7179 532.737 86.2335 532.136 86.894 531.706C87.5588 531.271 88.3343 531.054 89.2207 531.054C89.7321 531.054 90.237 531.139 90.7356 531.31C91.2342 531.48 91.688 531.757 92.0971 532.141C92.5062 532.52 92.8322 533.023 93.0751 533.649C93.318 534.276 93.4395 535.047 93.4395 535.963V536.602H85.8713V535.298H91.9054C91.9054 534.744 91.7946 534.25 91.573 533.815C91.3556 533.381 91.0446 533.038 90.6397 532.786C90.2392 532.535 89.7662 532.409 89.2207 532.409C88.6199 532.409 88.1 532.558 87.661 532.857C87.2264 533.151 86.8919 533.534 86.6575 534.007C86.4231 534.48 86.3059 534.987 86.3059 535.528V536.398C86.3059 537.139 86.4338 537.768 86.6895 538.283C86.9494 538.795 87.3095 539.185 87.7697 539.453C88.2299 539.717 88.7647 539.849 89.3741 539.849C89.7704 539.849 90.1284 539.794 90.448 539.683C90.7718 539.568 91.051 539.398 91.2853 539.172C91.5197 538.942 91.7008 538.656 91.8287 538.315L93.286 538.724C93.1326 539.219 92.8748 539.653 92.5126 540.028C92.1504 540.399 91.7029 540.689 91.1703 540.898C90.6376 541.102 90.0389 541.205 89.3741 541.205ZM95.7342 541V531.182H97.1916V532.716H97.3194C97.524 532.192 97.8542 531.785 98.3102 531.495C98.7662 531.201 99.3137 531.054 99.9529 531.054C100.601 531.054 101.14 531.201 101.57 531.495C102.005 531.785 102.344 532.192 102.586 532.716H102.689C102.94 532.209 103.317 531.806 103.82 531.508C104.323 531.205 104.926 531.054 105.629 531.054C106.507 531.054 107.225 531.329 107.783 531.879C108.341 532.424 108.621 533.274 108.621 534.429V541H107.112V534.429C107.112 533.705 106.914 533.187 106.518 532.876C106.121 532.565 105.655 532.409 105.118 532.409C104.427 532.409 103.893 532.618 103.513 533.036C103.134 533.449 102.944 533.973 102.944 534.608V541H101.41V534.276C101.41 533.717 101.229 533.268 100.867 532.927C100.505 532.582 100.038 532.409 99.4672 532.409C99.0751 532.409 98.7086 532.513 98.3677 532.722C98.0311 532.931 97.7583 533.221 97.5495 533.592C97.345 533.958 97.2427 534.382 97.2427 534.864V541H95.7342Z" fill="#CCCCCC"/>
<path d="M146.347 187V185.287L150.892 180.832C151.326 180.393 151.689 180.003 151.978 179.662C152.268 179.321 152.485 178.991 152.63 178.671C152.775 178.352 152.848 178.011 152.848 177.648C152.848 177.235 152.754 176.881 152.566 176.587C152.379 176.289 152.121 176.059 151.793 175.897C151.465 175.735 151.092 175.654 150.674 175.654C150.244 175.654 149.867 175.744 149.543 175.923C149.219 176.097 148.968 176.347 148.789 176.67C148.614 176.994 148.527 177.38 148.527 177.827H146.27C146.27 176.996 146.46 176.274 146.839 175.661C147.218 175.047 147.74 174.572 148.405 174.235C149.074 173.898 149.841 173.73 150.706 173.73C151.584 173.73 152.355 173.894 153.02 174.222C153.685 174.55 154.201 175 154.567 175.571C154.938 176.142 155.123 176.794 155.123 177.527C155.123 178.017 155.029 178.499 154.842 178.972C154.654 179.445 154.324 179.969 153.851 180.544C153.382 181.119 152.724 181.816 151.876 182.634L149.62 184.929V185.018H155.321V187H146.347ZM162.365 187.249C161.313 187.249 160.409 186.983 159.655 186.45C158.905 185.913 158.328 185.14 157.923 184.13C157.522 183.116 157.322 181.895 157.322 180.467C157.326 179.04 157.529 177.825 157.929 176.824C158.334 175.818 158.912 175.051 159.662 174.523C160.416 173.994 161.317 173.73 162.365 173.73C163.414 173.73 164.315 173.994 165.069 174.523C165.824 175.051 166.401 175.818 166.801 176.824C167.206 177.83 167.409 179.044 167.409 180.467C167.409 181.899 167.206 183.122 166.801 184.136C166.401 185.146 165.824 185.918 165.069 186.45C164.319 186.983 163.418 187.249 162.365 187.249ZM162.365 185.249C163.184 185.249 163.829 184.846 164.302 184.04C164.779 183.231 165.018 182.04 165.018 180.467C165.018 179.428 164.909 178.554 164.692 177.847C164.475 177.139 164.168 176.607 163.772 176.249C163.375 175.886 162.907 175.705 162.365 175.705C161.551 175.705 160.908 176.11 160.435 176.92C159.962 177.725 159.723 178.908 159.719 180.467C159.715 181.511 159.819 182.389 160.032 183.101C160.25 183.812 160.556 184.349 160.953 184.712C161.349 185.07 161.82 185.249 162.365 185.249ZM176.532 184.545V183.855C176.532 183.348 176.638 182.881 176.851 182.455C177.069 182.029 177.384 181.686 177.797 181.426C178.211 181.166 178.711 181.036 179.3 181.036C179.905 181.036 180.412 181.166 180.821 181.426C181.23 181.682 181.539 182.023 181.748 182.449C181.961 182.875 182.067 183.344 182.067 183.855V184.545C182.067 185.053 181.961 185.519 181.748 185.945C181.535 186.371 181.221 186.714 180.808 186.974C180.399 187.234 179.896 187.364 179.3 187.364C178.703 187.364 178.198 187.234 177.785 186.974C177.371 186.714 177.058 186.371 176.845 185.945C176.636 185.519 176.532 185.053 176.532 184.545ZM178.2 183.855V184.545C178.2 184.882 178.281 185.191 178.443 185.472C178.605 185.754 178.89 185.894 179.3 185.894C179.713 185.894 179.996 185.756 180.15 185.479C180.307 185.197 180.386 184.886 180.386 184.545V183.855C180.386 183.514 180.312 183.203 180.162 182.922C180.013 182.636 179.726 182.494 179.3 182.494C178.899 182.494 178.616 182.636 178.449 182.922C178.283 183.203 178.2 183.514 178.2 183.855ZM169.878 177.054V176.364C169.878 175.852 169.986 175.384 170.204 174.957C170.421 174.531 170.736 174.19 171.15 173.935C171.563 173.675 172.064 173.545 172.652 173.545C173.253 173.545 173.758 173.675 174.167 173.935C174.58 174.19 174.891 174.531 175.1 174.957C175.309 175.384 175.413 175.852 175.413 176.364V177.054C175.413 177.565 175.307 178.034 175.094 178.46C174.885 178.882 174.574 179.221 174.16 179.477C173.747 179.732 173.244 179.86 172.652 179.86C172.051 179.86 171.544 179.732 171.131 179.477C170.721 179.221 170.41 178.88 170.197 178.454C169.984 178.028 169.878 177.561 169.878 177.054ZM171.559 176.364V177.054C171.559 177.395 171.638 177.706 171.795 177.987C171.957 178.264 172.243 178.403 172.652 178.403C173.061 178.403 173.342 178.264 173.496 177.987C173.653 177.706 173.732 177.395 173.732 177.054V176.364C173.732 176.023 173.657 175.712 173.508 175.43C173.359 175.145 173.074 175.002 172.652 175.002C172.247 175.002 171.964 175.145 171.802 175.43C171.64 175.716 171.559 176.027 171.559 176.364ZM170.606 187L179.606 173.909H181.204L172.204 187H170.606Z" fill="white"/>
<path d="M110.932 197.315V195.909H120.75V197.315H116.634V209H115.048V197.315H110.932ZM121.972 209V199.182H123.43V200.665H123.532C123.711 200.179 124.035 199.785 124.504 199.482C124.972 199.18 125.501 199.028 126.089 199.028C126.2 199.028 126.338 199.031 126.504 199.035C126.671 199.039 126.796 199.045 126.882 199.054V200.588C126.83 200.575 126.713 200.556 126.53 200.531C126.351 200.501 126.161 200.486 125.961 200.486C125.484 200.486 125.058 200.586 124.683 200.786C124.312 200.982 124.018 201.255 123.801 201.604C123.588 201.95 123.481 202.344 123.481 202.787V209H121.972ZM132.487 209.205C131.541 209.205 130.725 208.996 130.039 208.578C129.357 208.156 128.831 207.568 128.46 206.814C128.094 206.055 127.911 205.173 127.911 204.168C127.911 203.162 128.094 202.276 128.46 201.509C128.831 200.737 129.347 200.136 130.007 199.706C130.672 199.271 131.448 199.054 132.334 199.054C132.845 199.054 133.35 199.139 133.849 199.31C134.347 199.48 134.801 199.757 135.21 200.141C135.619 200.52 135.945 201.023 136.188 201.649C136.431 202.276 136.553 203.047 136.553 203.963V204.602H128.985V203.298H135.019C135.019 202.744 134.908 202.25 134.686 201.815C134.469 201.381 134.158 201.038 133.753 200.786C133.352 200.535 132.879 200.409 132.334 200.409C131.733 200.409 131.213 200.558 130.774 200.857C130.34 201.151 130.005 201.534 129.771 202.007C129.536 202.48 129.419 202.987 129.419 203.528V204.398C129.419 205.139 129.547 205.768 129.803 206.283C130.063 206.795 130.423 207.185 130.883 207.453C131.343 207.717 131.878 207.849 132.487 207.849C132.884 207.849 133.242 207.794 133.561 207.683C133.885 207.568 134.164 207.398 134.399 207.172C134.633 206.942 134.814 206.656 134.942 206.315L136.399 206.724C136.246 207.219 135.988 207.653 135.626 208.028C135.264 208.399 134.816 208.689 134.284 208.898C133.751 209.102 133.152 209.205 132.487 209.205ZM141.737 209.23C141.115 209.23 140.55 209.113 140.043 208.879C139.536 208.64 139.133 208.297 138.835 207.849C138.536 207.398 138.387 206.852 138.387 206.213C138.387 205.651 138.498 205.195 138.72 204.845C138.941 204.491 139.237 204.214 139.608 204.014C139.979 203.814 140.388 203.665 140.835 203.567C141.287 203.464 141.741 203.384 142.197 203.324C142.794 203.247 143.277 203.19 143.648 203.151C144.023 203.109 144.296 203.038 144.466 202.94C144.641 202.842 144.728 202.672 144.728 202.429V202.378C144.728 201.747 144.556 201.257 144.21 200.908C143.869 200.558 143.352 200.384 142.657 200.384C141.937 200.384 141.372 200.541 140.963 200.857C140.554 201.172 140.267 201.509 140.1 201.866L138.669 201.355C138.924 200.759 139.265 200.294 139.691 199.962C140.122 199.625 140.59 199.391 141.097 199.259C141.609 199.122 142.112 199.054 142.606 199.054C142.921 199.054 143.284 199.092 143.693 199.169C144.106 199.241 144.504 199.393 144.888 199.623C145.276 199.853 145.597 200.2 145.853 200.665C146.109 201.129 146.237 201.751 146.237 202.531V209H144.728V207.67H144.651C144.549 207.884 144.379 208.112 144.14 208.354C143.901 208.597 143.584 208.804 143.188 208.974C142.791 209.145 142.308 209.23 141.737 209.23ZM141.967 207.875C142.563 207.875 143.066 207.758 143.475 207.523C143.889 207.289 144.2 206.987 144.409 206.616C144.622 206.245 144.728 205.855 144.728 205.446V204.065C144.664 204.142 144.524 204.212 144.306 204.276C144.093 204.336 143.846 204.389 143.565 204.436C143.288 204.479 143.017 204.517 142.753 204.551C142.493 204.581 142.282 204.607 142.12 204.628C141.728 204.679 141.362 204.762 141.021 204.877C140.684 204.988 140.411 205.156 140.203 205.382C139.998 205.604 139.896 205.906 139.896 206.29C139.896 206.814 140.09 207.21 140.477 207.479C140.869 207.743 141.366 207.875 141.967 207.875ZM155.945 201.381L154.589 201.764C154.504 201.538 154.379 201.319 154.212 201.106C154.05 200.888 153.829 200.71 153.548 200.569C153.266 200.428 152.906 200.358 152.467 200.358C151.866 200.358 151.366 200.496 150.965 200.773C150.569 201.046 150.371 201.393 150.371 201.815C150.371 202.19 150.507 202.487 150.78 202.704C151.053 202.921 151.479 203.102 152.058 203.247L153.516 203.605C154.393 203.818 155.048 204.144 155.478 204.583C155.908 205.018 156.124 205.578 156.124 206.264C156.124 206.827 155.962 207.33 155.638 207.773C155.318 208.216 154.871 208.565 154.295 208.821C153.72 209.077 153.051 209.205 152.288 209.205C151.287 209.205 150.458 208.987 149.802 208.553C149.146 208.118 148.73 207.483 148.555 206.648L149.987 206.29C150.124 206.818 150.381 207.214 150.761 207.479C151.144 207.743 151.645 207.875 152.263 207.875C152.966 207.875 153.524 207.726 153.938 207.428C154.355 207.125 154.564 206.763 154.564 206.341C154.564 206 154.445 205.714 154.206 205.484C153.967 205.25 153.601 205.075 153.107 204.96L151.47 204.577C150.571 204.364 149.911 204.033 149.489 203.586C149.071 203.134 148.862 202.57 148.862 201.892C148.862 201.338 149.018 200.848 149.329 200.422C149.644 199.996 150.072 199.661 150.614 199.418C151.159 199.175 151.777 199.054 152.467 199.054C153.439 199.054 154.202 199.267 154.756 199.693C155.314 200.119 155.71 200.682 155.945 201.381ZM164.582 204.986V199.182H166.09V209H164.582V207.338H164.48C164.249 207.837 163.892 208.261 163.406 208.61C162.92 208.955 162.306 209.128 161.565 209.128C160.951 209.128 160.406 208.994 159.928 208.725C159.451 208.452 159.076 208.043 158.803 207.498C158.531 206.948 158.394 206.256 158.394 205.42V199.182H159.903V205.318C159.903 206.034 160.103 206.605 160.504 207.031C160.909 207.457 161.424 207.67 162.051 207.67C162.426 207.67 162.807 207.575 163.195 207.383C163.587 207.191 163.915 206.897 164.179 206.501C164.448 206.104 164.582 205.599 164.582 204.986ZM168.853 209V199.182H170.311V200.665H170.413C170.592 200.179 170.916 199.785 171.385 199.482C171.853 199.18 172.382 199.028 172.97 199.028C173.081 199.028 173.219 199.031 173.385 199.035C173.551 199.039 173.677 199.045 173.762 199.054V200.588C173.711 200.575 173.594 200.556 173.411 200.531C173.232 200.501 173.042 200.486 172.842 200.486C172.365 200.486 171.939 200.586 171.564 200.786C171.193 200.982 170.899 201.255 170.681 201.604C170.468 201.95 170.362 202.344 170.362 202.787V209H168.853ZM176.821 212.682C176.565 212.682 176.337 212.661 176.137 212.618C175.937 212.58 175.798 212.541 175.722 212.503L176.105 211.173C176.472 211.267 176.795 211.301 177.077 211.276C177.358 211.25 177.607 211.124 177.825 210.898C178.046 210.677 178.249 210.317 178.432 209.818L178.713 209.051L175.082 199.182H176.719L179.429 207.006H179.531L182.241 199.182H183.878L179.71 210.432C179.523 210.939 179.29 211.359 179.013 211.691C178.737 212.028 178.415 212.277 178.048 212.439C177.686 212.601 177.277 212.682 176.821 212.682Z" fill="#CCCCCC"/>
<path d="M480.488 125.909V139H478.116V128.217H478.04L474.978 130.173V127.999L478.232 125.909H480.488ZM489.136 125.909V139H486.765V128.217H486.688L483.626 130.173V127.999L486.88 125.909H489.136ZM499.46 136.545V135.855C499.46 135.348 499.566 134.881 499.779 134.455C499.996 134.029 500.312 133.686 500.725 133.426C501.138 133.166 501.639 133.036 502.227 133.036C502.832 133.036 503.339 133.166 503.749 133.426C504.158 133.682 504.467 134.023 504.675 134.449C504.888 134.875 504.995 135.344 504.995 135.855V136.545C504.995 137.053 504.888 137.519 504.675 137.945C504.462 138.371 504.149 138.714 503.736 138.974C503.327 139.234 502.824 139.364 502.227 139.364C501.631 139.364 501.126 139.234 500.712 138.974C500.299 138.714 499.986 138.371 499.773 137.945C499.564 137.519 499.46 137.053 499.46 136.545ZM501.128 135.855V136.545C501.128 136.882 501.209 137.191 501.371 137.472C501.533 137.754 501.818 137.894 502.227 137.894C502.641 137.894 502.924 137.756 503.077 137.479C503.235 137.197 503.314 136.886 503.314 136.545V135.855C503.314 135.514 503.239 135.203 503.09 134.922C502.941 134.636 502.653 134.494 502.227 134.494C501.827 134.494 501.543 134.636 501.377 134.922C501.211 135.203 501.128 135.514 501.128 135.855ZM492.805 129.054V128.364C492.805 127.852 492.914 127.384 493.131 126.957C493.349 126.531 493.664 126.19 494.077 125.935C494.491 125.675 494.991 125.545 495.58 125.545C496.18 125.545 496.685 125.675 497.094 125.935C497.508 126.19 497.819 126.531 498.028 126.957C498.237 127.384 498.341 127.852 498.341 128.364V129.054C498.341 129.565 498.234 130.034 498.021 130.46C497.813 130.882 497.501 131.221 497.088 131.477C496.675 131.732 496.172 131.86 495.58 131.86C494.979 131.86 494.472 131.732 494.058 131.477C493.649 131.221 493.338 130.88 493.125 130.454C492.912 130.028 492.805 129.561 492.805 129.054ZM494.487 128.364V129.054C494.487 129.395 494.565 129.706 494.723 129.987C494.885 130.264 495.17 130.403 495.58 130.403C495.989 130.403 496.27 130.264 496.423 129.987C496.581 129.706 496.66 129.395 496.66 129.054V128.364C496.66 128.023 496.585 127.712 496.436 127.43C496.287 127.145 496.001 127.002 495.58 127.002C495.175 127.002 494.891 127.145 494.729 127.43C494.567 127.716 494.487 128.027 494.487 128.364ZM493.534 139L502.534 125.909H504.132L495.132 139H493.534Z" fill="white"/>
<path d="M486.119 152H484.534C484.44 151.544 484.276 151.143 484.042 150.798C483.812 150.453 483.531 150.163 483.198 149.929C482.87 149.69 482.506 149.511 482.105 149.392C481.705 149.273 481.287 149.213 480.852 149.213C480.06 149.213 479.342 149.413 478.698 149.814C478.059 150.214 477.55 150.805 477.17 151.585C476.795 152.364 476.608 153.321 476.608 154.455C476.608 155.588 476.795 156.545 477.17 157.325C477.55 158.104 478.059 158.695 478.698 159.095C479.342 159.496 480.06 159.696 480.852 159.696C481.287 159.696 481.705 159.636 482.105 159.517C482.506 159.398 482.87 159.221 483.198 158.987C483.531 158.748 483.812 158.456 484.042 158.111C484.276 157.761 484.44 157.361 484.534 156.909H486.119C486 157.578 485.783 158.177 485.467 158.705C485.152 159.234 484.76 159.683 484.291 160.054C483.822 160.42 483.296 160.7 482.712 160.891C482.133 161.083 481.513 161.179 480.852 161.179C479.736 161.179 478.743 160.906 477.874 160.361C477.004 159.815 476.32 159.04 475.822 158.034C475.323 157.028 475.074 155.835 475.074 154.455C475.074 153.074 475.323 151.881 475.822 150.875C476.32 149.869 477.004 149.094 477.874 148.548C478.743 148.003 479.736 147.73 480.852 147.73C481.513 147.73 482.133 147.826 482.712 148.018C483.296 148.21 483.822 148.491 484.291 148.862C484.76 149.228 485.152 149.675 485.467 150.204C485.783 150.728 486 151.327 486.119 152ZM492.465 161.205C491.579 161.205 490.801 160.994 490.132 160.572C489.467 160.15 488.947 159.56 488.572 158.801C488.202 158.043 488.016 157.156 488.016 156.142C488.016 155.119 488.202 154.227 488.572 153.464C488.947 152.701 489.467 152.109 490.132 151.687C490.801 151.265 491.579 151.054 492.465 151.054C493.351 151.054 494.127 151.265 494.792 151.687C495.461 152.109 495.981 152.701 496.351 153.464C496.726 154.227 496.914 155.119 496.914 156.142C496.914 157.156 496.726 158.043 496.351 158.801C495.981 159.56 495.461 160.15 494.792 160.572C494.127 160.994 493.351 161.205 492.465 161.205ZM492.465 159.849C493.138 159.849 493.692 159.677 494.127 159.332C494.562 158.987 494.883 158.533 495.092 157.97C495.301 157.408 495.405 156.798 495.405 156.142C495.405 155.486 495.301 154.874 495.092 154.308C494.883 153.741 494.562 153.283 494.127 152.933C493.692 152.584 493.138 152.409 492.465 152.409C491.792 152.409 491.238 152.584 490.803 152.933C490.368 153.283 490.047 153.741 489.838 154.308C489.629 154.874 489.525 155.486 489.525 156.142C489.525 156.798 489.629 157.408 489.838 157.97C490.047 158.533 490.368 158.987 490.803 159.332C491.238 159.677 491.792 159.849 492.465 159.849ZM499.217 161V151.182H500.674V152.716H500.802C501.006 152.192 501.337 151.785 501.793 151.495C502.249 151.201 502.796 151.054 503.435 151.054C504.083 151.054 504.622 151.201 505.053 151.495C505.487 151.785 505.826 152.192 506.069 152.716H506.171C506.423 152.209 506.8 151.806 507.303 151.508C507.805 151.205 508.408 151.054 509.112 151.054C509.989 151.054 510.707 151.329 511.266 151.879C511.824 152.424 512.103 153.274 512.103 154.429V161H510.594V154.429C510.594 153.705 510.396 153.187 510 152.876C509.604 152.565 509.137 152.409 508.6 152.409C507.91 152.409 507.375 152.618 506.996 153.036C506.616 153.449 506.427 153.973 506.427 154.608V161H504.893V154.276C504.893 153.717 504.712 153.268 504.349 152.927C503.987 152.582 503.521 152.409 502.95 152.409C502.558 152.409 502.191 152.513 501.85 152.722C501.513 152.931 501.241 153.221 501.032 153.592C500.827 153.958 500.725 154.382 500.725 154.864V161H499.217ZM514.861 161V151.182H516.319V152.716H516.446C516.651 152.192 516.981 151.785 517.437 151.495C517.893 151.201 518.441 151.054 519.08 151.054C519.728 151.054 520.267 151.201 520.697 151.495C521.132 151.785 521.471 152.192 521.713 152.716H521.816C522.067 152.209 522.444 151.806 522.947 151.508C523.45 151.205 524.053 151.054 524.756 151.054C525.634 151.054 526.352 151.329 526.91 151.879C527.468 152.424 527.748 153.274 527.748 154.429V161H526.239V154.429C526.239 153.705 526.041 153.187 525.645 152.876C525.248 152.565 524.782 152.409 524.245 152.409C523.554 152.409 523.02 152.618 522.64 153.036C522.261 153.449 522.071 153.973 522.071 154.608V161H520.537V154.276C520.537 153.717 520.356 153.268 519.994 152.927C519.632 152.582 519.165 152.409 518.594 152.409C518.202 152.409 517.836 152.513 517.495 152.722C517.158 152.931 516.885 153.221 516.676 153.592C516.472 153.958 516.37 154.382 516.37 154.864V161H514.861ZM536.693 156.986V151.182H538.202V161H536.693V159.338H536.591C536.361 159.837 536.003 160.261 535.517 160.61C535.031 160.955 534.418 161.128 533.676 161.128C533.062 161.128 532.517 160.994 532.04 160.725C531.563 160.452 531.188 160.043 530.915 159.498C530.642 158.948 530.506 158.256 530.506 157.42V151.182H532.014V157.318C532.014 158.034 532.214 158.605 532.615 159.031C533.02 159.457 533.536 159.67 534.162 159.67C534.537 159.67 534.918 159.575 535.306 159.383C535.698 159.191 536.026 158.897 536.29 158.501C536.559 158.104 536.693 157.599 536.693 156.986ZM542.473 155.094V161H540.965V151.182H542.422V152.716H542.55C542.78 152.217 543.129 151.817 543.598 151.514C544.067 151.207 544.672 151.054 545.414 151.054C546.078 151.054 546.66 151.19 547.159 151.463C547.657 151.732 548.045 152.141 548.322 152.69C548.599 153.236 548.737 153.926 548.737 154.761V161H547.229V154.864C547.229 154.092 547.029 153.491 546.628 153.061C546.227 152.626 545.678 152.409 544.979 152.409C544.497 152.409 544.067 152.513 543.688 152.722C543.313 152.931 543.017 153.236 542.799 153.636C542.582 154.037 542.473 154.523 542.473 155.094ZM551.494 161V151.182H553.002V161H551.494ZM552.261 149.545C551.967 149.545 551.713 149.445 551.5 149.245C551.292 149.045 551.187 148.804 551.187 148.523C551.187 148.241 551.292 148.001 551.5 147.8C551.713 147.6 551.967 147.5 552.261 147.5C552.555 147.5 552.806 147.6 553.015 147.8C553.228 148.001 553.335 148.241 553.335 148.523C553.335 148.804 553.228 149.045 553.015 149.245C552.806 149.445 552.555 149.545 552.261 149.545ZM560.035 151.182V152.46H554.947V151.182H560.035ZM556.43 148.83H557.939V158.188C557.939 158.614 558.001 158.933 558.124 159.146C558.252 159.355 558.414 159.496 558.61 159.568C558.81 159.636 559.021 159.67 559.243 159.67C559.409 159.67 559.545 159.662 559.652 159.645C559.758 159.624 559.844 159.607 559.907 159.594L560.214 160.949C560.112 160.987 559.969 161.026 559.786 161.064C559.603 161.107 559.371 161.128 559.089 161.128C558.663 161.128 558.246 161.036 557.836 160.853C557.432 160.67 557.095 160.391 556.827 160.016C556.562 159.641 556.43 159.168 556.43 158.597V148.83ZM563.276 164.682C563.02 164.682 562.792 164.661 562.592 164.618C562.392 164.58 562.253 164.541 562.177 164.503L562.56 163.173C562.927 163.267 563.251 163.301 563.532 163.276C563.813 163.25 564.062 163.124 564.28 162.898C564.501 162.677 564.704 162.317 564.887 161.818L565.168 161.051L561.537 151.182H563.174L565.884 159.006H565.986L568.697 151.182H570.333L566.165 162.432C565.978 162.939 565.746 163.359 565.469 163.691C565.192 164.028 564.87 164.277 564.503 164.439C564.141 164.601 563.732 164.682 563.276 164.682Z" fill="#CCCCCC"/>
<path d="M629.488 293.909V307H627.116V296.217H627.04L623.978 298.173V295.999L627.232 293.909H629.488ZM637.651 307.249C636.598 307.249 635.695 306.983 634.94 306.45C634.19 305.913 633.613 305.14 633.208 304.13C632.808 303.116 632.607 301.895 632.607 300.467C632.612 299.04 632.814 297.825 633.214 296.824C633.619 295.818 634.197 295.051 634.947 294.523C635.701 293.994 636.602 293.73 637.651 293.73C638.699 293.73 639.6 293.994 640.354 294.523C641.109 295.051 641.686 295.818 642.087 296.824C642.491 297.83 642.694 299.044 642.694 300.467C642.694 301.899 642.491 303.122 642.087 304.136C641.686 305.146 641.109 305.918 640.354 306.45C639.604 306.983 638.703 307.249 637.651 307.249ZM637.651 305.249C638.469 305.249 639.114 304.846 639.587 304.04C640.065 303.231 640.303 302.04 640.303 300.467C640.303 299.428 640.195 298.554 639.977 297.847C639.76 297.139 639.453 296.607 639.057 296.249C638.661 295.886 638.192 295.705 637.651 295.705C636.837 295.705 636.193 296.11 635.72 296.92C635.247 297.725 635.009 298.908 635.004 300.467C635 301.511 635.104 302.389 635.317 303.101C635.535 303.812 635.842 304.349 636.238 304.712C636.634 305.07 637.105 305.249 637.651 305.249ZM651.817 304.545V303.855C651.817 303.348 651.923 302.881 652.137 302.455C652.354 302.029 652.669 301.686 653.083 301.426C653.496 301.166 653.997 301.036 654.585 301.036C655.19 301.036 655.697 301.166 656.106 301.426C656.515 301.682 656.824 302.023 657.033 302.449C657.246 302.875 657.352 303.344 657.352 303.855V304.545C657.352 305.053 657.246 305.519 657.033 305.945C656.82 306.371 656.507 306.714 656.093 306.974C655.684 307.234 655.181 307.364 654.585 307.364C653.988 307.364 653.483 307.234 653.07 306.974C652.656 306.714 652.343 306.371 652.13 305.945C651.921 305.519 651.817 305.053 651.817 304.545ZM653.485 303.855V304.545C653.485 304.882 653.566 305.191 653.728 305.472C653.89 305.754 654.176 305.894 654.585 305.894C654.998 305.894 655.281 305.756 655.435 305.479C655.593 305.197 655.671 304.886 655.671 304.545V303.855C655.671 303.514 655.597 303.203 655.448 302.922C655.298 302.636 655.011 302.494 654.585 302.494C654.184 302.494 653.901 302.636 653.735 302.922C653.568 303.203 653.485 303.514 653.485 303.855ZM645.163 297.054V296.364C645.163 295.852 645.271 295.384 645.489 294.957C645.706 294.531 646.021 294.19 646.435 293.935C646.848 293.675 647.349 293.545 647.937 293.545C648.538 293.545 649.043 293.675 649.452 293.935C649.865 294.19 650.176 294.531 650.385 294.957C650.594 295.384 650.698 295.852 650.698 296.364V297.054C650.698 297.565 650.592 298.034 650.379 298.46C650.17 298.882 649.859 299.221 649.445 299.477C649.032 299.732 648.529 299.86 647.937 299.86C647.336 299.86 646.829 299.732 646.416 299.477C646.007 299.221 645.695 298.88 645.482 298.454C645.269 298.028 645.163 297.561 645.163 297.054ZM646.844 296.364V297.054C646.844 297.395 646.923 297.706 647.08 297.987C647.242 298.264 647.528 298.403 647.937 298.403C648.346 298.403 648.627 298.264 648.781 297.987C648.938 297.706 649.017 297.395 649.017 297.054V296.364C649.017 296.023 648.943 295.712 648.794 295.43C648.644 295.145 648.359 295.002 647.937 295.002C647.532 295.002 647.249 295.145 647.087 295.43C646.925 295.716 646.844 296.027 646.844 296.364ZM645.892 307L654.892 293.909H656.49L647.49 307H645.892Z" fill="white"/>
<path d="M624.585 315.909H626.477L630.926 326.776H631.08L635.528 315.909H637.42V329H635.938V319.054H635.81L631.719 329H630.287L626.196 319.054H626.068V329H624.585V315.909ZM646.582 324.986V319.182H648.09V329H646.582V327.338H646.48C646.249 327.837 645.892 328.261 645.406 328.61C644.92 328.955 644.306 329.128 643.565 329.128C642.951 329.128 642.406 328.994 641.928 328.725C641.451 328.452 641.076 328.043 640.803 327.498C640.531 326.948 640.394 326.256 640.394 325.42V319.182H641.903V325.318C641.903 326.034 642.103 326.605 642.504 327.031C642.909 327.457 643.424 327.67 644.051 327.67C644.426 327.67 644.807 327.575 645.195 327.383C645.587 327.191 645.915 326.897 646.179 326.501C646.448 326.104 646.582 325.599 646.582 324.986ZM652.362 315.909V329H650.853V315.909H652.362ZM659.395 319.182V320.46H654.307V319.182H659.395ZM655.79 316.83H657.298V326.188C657.298 326.614 657.36 326.933 657.483 327.146C657.611 327.355 657.773 327.496 657.969 327.568C658.17 327.636 658.381 327.67 658.602 327.67C658.768 327.67 658.905 327.662 659.011 327.645C659.118 327.624 659.203 327.607 659.267 327.594L659.574 328.949C659.471 328.987 659.329 329.026 659.145 329.064C658.962 329.107 658.73 329.128 658.449 329.128C658.023 329.128 657.605 329.036 657.196 328.853C656.791 328.67 656.454 328.391 656.186 328.016C655.922 327.641 655.79 327.168 655.79 326.597V316.83ZM661.664 329V319.182H663.172V329H661.664ZM662.431 317.545C662.137 317.545 661.883 317.445 661.67 317.245C661.461 317.045 661.357 316.804 661.357 316.523C661.357 316.241 661.461 316.001 661.67 315.8C661.883 315.6 662.137 315.5 662.431 315.5C662.725 315.5 662.976 315.6 663.185 315.8C663.398 316.001 663.505 316.241 663.505 316.523C663.505 316.804 663.398 317.045 663.185 317.245C662.976 317.445 662.725 317.545 662.431 317.545ZM669.924 329.205C669.004 329.205 668.211 328.987 667.546 328.553C666.881 328.118 666.37 327.519 666.012 326.756C665.654 325.994 665.475 325.122 665.475 324.142C665.475 323.145 665.658 322.265 666.025 321.502C666.396 320.735 666.911 320.136 667.572 319.706C668.237 319.271 669.012 319.054 669.898 319.054C670.589 319.054 671.211 319.182 671.765 319.438C672.319 319.693 672.773 320.051 673.126 320.511C673.48 320.972 673.7 321.509 673.785 322.122H672.276C672.161 321.675 671.906 321.278 671.509 320.933C671.117 320.584 670.589 320.409 669.924 320.409C669.336 320.409 668.82 320.562 668.377 320.869C667.938 321.172 667.595 321.6 667.348 322.154C667.105 322.704 666.984 323.349 666.984 324.091C666.984 324.849 667.103 325.51 667.342 326.072C667.585 326.635 667.925 327.072 668.364 327.383C668.808 327.694 669.327 327.849 669.924 327.849C670.316 327.849 670.672 327.781 670.991 327.645C671.311 327.509 671.582 327.312 671.803 327.057C672.025 326.801 672.183 326.494 672.276 326.136H673.785C673.7 326.716 673.489 327.238 673.152 327.702C672.82 328.163 672.379 328.529 671.829 328.802C671.283 329.07 670.648 329.205 669.924 329.205ZM677.499 323.094V329H675.99V315.909H677.499V320.716H677.626C677.857 320.209 678.202 319.806 678.662 319.508C679.126 319.205 679.744 319.054 680.516 319.054C681.185 319.054 681.771 319.188 682.273 319.457C682.776 319.721 683.166 320.128 683.443 320.678C683.724 321.223 683.865 321.918 683.865 322.761V329H682.357V322.864C682.357 322.084 682.154 321.481 681.749 321.055C681.349 320.624 680.793 320.409 680.081 320.409C679.587 320.409 679.143 320.513 678.751 320.722C678.364 320.931 678.057 321.236 677.831 321.636C677.609 322.037 677.499 322.523 677.499 323.094ZM689.514 329.23C688.892 329.23 688.327 329.113 687.82 328.879C687.313 328.64 686.91 328.297 686.612 327.849C686.314 327.398 686.165 326.852 686.165 326.213C686.165 325.651 686.275 325.195 686.497 324.845C686.719 324.491 687.015 324.214 687.385 324.014C687.756 323.814 688.165 323.665 688.613 323.567C689.064 323.464 689.518 323.384 689.974 323.324C690.571 323.247 691.055 323.19 691.425 323.151C691.8 323.109 692.073 323.038 692.243 322.94C692.418 322.842 692.506 322.672 692.506 322.429V322.378C692.506 321.747 692.333 321.257 691.988 320.908C691.647 320.558 691.129 320.384 690.434 320.384C689.714 320.384 689.15 320.541 688.741 320.857C688.331 321.172 688.044 321.509 687.878 321.866L686.446 321.355C686.702 320.759 687.042 320.294 687.469 319.962C687.899 319.625 688.368 319.391 688.875 319.259C689.386 319.122 689.889 319.054 690.383 319.054C690.699 319.054 691.061 319.092 691.47 319.169C691.883 319.241 692.282 319.393 692.665 319.623C693.053 319.853 693.375 320.2 693.631 320.665C693.886 321.129 694.014 321.751 694.014 322.531V329H692.506V327.67H692.429C692.327 327.884 692.156 328.112 691.917 328.354C691.679 328.597 691.361 328.804 690.965 328.974C690.569 329.145 690.085 329.23 689.514 329.23ZM689.744 327.875C690.341 327.875 690.844 327.758 691.253 327.523C691.666 327.289 691.977 326.987 692.186 326.616C692.399 326.245 692.506 325.855 692.506 325.446V324.065C692.442 324.142 692.301 324.212 692.084 324.276C691.871 324.336 691.623 324.389 691.342 324.436C691.065 324.479 690.795 324.517 690.53 324.551C690.27 324.581 690.059 324.607 689.898 324.628C689.506 324.679 689.139 324.762 688.798 324.877C688.461 324.988 688.189 325.156 687.98 325.382C687.775 325.604 687.673 325.906 687.673 326.29C687.673 326.814 687.867 327.21 688.255 327.479C688.647 327.743 689.143 327.875 689.744 327.875ZM696.767 329V319.182H698.276V329H696.767ZM697.534 317.545C697.24 317.545 696.987 317.445 696.774 317.245C696.565 317.045 696.461 316.804 696.461 316.523C696.461 316.241 696.565 316.001 696.774 315.8C696.987 315.6 697.24 315.5 697.534 315.5C697.828 315.5 698.08 315.6 698.289 315.8C698.502 316.001 698.608 316.241 698.608 316.523C698.608 316.804 698.502 317.045 698.289 317.245C698.08 317.445 697.828 317.545 697.534 317.545ZM702.547 323.094V329H701.039V319.182H702.496V320.716H702.624C702.854 320.217 703.204 319.817 703.672 319.514C704.141 319.207 704.746 319.054 705.488 319.054C706.153 319.054 706.734 319.19 707.233 319.463C707.731 319.732 708.119 320.141 708.396 320.69C708.673 321.236 708.812 321.926 708.812 322.761V329H707.303V322.864C707.303 322.092 707.103 321.491 706.702 321.061C706.302 320.626 705.752 320.409 705.053 320.409C704.572 320.409 704.141 320.513 703.762 320.722C703.387 320.931 703.091 321.236 702.873 321.636C702.656 322.037 702.547 322.523 702.547 323.094Z" fill="#CCCCCC"/>
<path d="M629.488 509.909V523H627.116V512.217H627.04L623.978 514.173V511.999L627.232 509.909H629.488ZM637.651 523.249C636.598 523.249 635.695 522.983 634.94 522.45C634.19 521.913 633.613 521.14 633.208 520.13C632.808 519.116 632.607 517.895 632.607 516.467C632.612 515.04 632.814 513.825 633.214 512.824C633.619 511.818 634.197 511.051 634.947 510.523C635.701 509.994 636.602 509.73 637.651 509.73C638.699 509.73 639.6 509.994 640.354 510.523C641.109 511.051 641.686 511.818 642.087 512.824C642.491 513.83 642.694 515.044 642.694 516.467C642.694 517.899 642.491 519.122 642.087 520.136C641.686 521.146 641.109 521.918 640.354 522.45C639.604 522.983 638.703 523.249 637.651 523.249ZM637.651 521.249C638.469 521.249 639.114 520.846 639.587 520.04C640.065 519.231 640.303 518.04 640.303 516.467C640.303 515.428 640.195 514.554 639.977 513.847C639.76 513.139 639.453 512.607 639.057 512.249C638.661 511.886 638.192 511.705 637.651 511.705C636.837 511.705 636.193 512.11 635.72 512.92C635.247 513.725 635.009 514.908 635.004 516.467C635 517.511 635.104 518.389 635.317 519.101C635.535 519.812 635.842 520.349 636.238 520.712C636.634 521.07 637.105 521.249 637.651 521.249ZM651.817 520.545V519.855C651.817 519.348 651.923 518.881 652.137 518.455C652.354 518.029 652.669 517.686 653.083 517.426C653.496 517.166 653.997 517.036 654.585 517.036C655.19 517.036 655.697 517.166 656.106 517.426C656.515 517.682 656.824 518.023 657.033 518.449C657.246 518.875 657.352 519.344 657.352 519.855V520.545C657.352 521.053 657.246 521.519 657.033 521.945C656.82 522.371 656.507 522.714 656.093 522.974C655.684 523.234 655.181 523.364 654.585 523.364C653.988 523.364 653.483 523.234 653.07 522.974C652.656 522.714 652.343 522.371 652.13 521.945C651.921 521.519 651.817 521.053 651.817 520.545ZM653.485 519.855V520.545C653.485 520.882 653.566 521.191 653.728 521.472C653.89 521.754 654.176 521.894 654.585 521.894C654.998 521.894 655.281 521.756 655.435 521.479C655.593 521.197 655.671 520.886 655.671 520.545V519.855C655.671 519.514 655.597 519.203 655.448 518.922C655.298 518.636 655.011 518.494 654.585 518.494C654.184 518.494 653.901 518.636 653.735 518.922C653.568 519.203 653.485 519.514 653.485 519.855ZM645.163 513.054V512.364C645.163 511.852 645.271 511.384 645.489 510.957C645.706 510.531 646.021 510.19 646.435 509.935C646.848 509.675 647.349 509.545 647.937 509.545C648.538 509.545 649.043 509.675 649.452 509.935C649.865 510.19 650.176 510.531 650.385 510.957C650.594 511.384 650.698 511.852 650.698 512.364V513.054C650.698 513.565 650.592 514.034 650.379 514.46C650.17 514.882 649.859 515.221 649.445 515.477C649.032 515.732 648.529 515.86 647.937 515.86C647.336 515.86 646.829 515.732 646.416 515.477C646.007 515.221 645.695 514.88 645.482 514.454C645.269 514.028 645.163 513.561 645.163 513.054ZM646.844 512.364V513.054C646.844 513.395 646.923 513.706 647.08 513.987C647.242 514.264 647.528 514.403 647.937 514.403C648.346 514.403 648.627 514.264 648.781 513.987C648.938 513.706 649.017 513.395 649.017 513.054V512.364C649.017 512.023 648.943 511.712 648.794 511.43C648.644 511.145 648.359 511.002 647.937 511.002C647.532 511.002 647.249 511.145 647.087 511.43C646.925 511.716 646.844 512.027 646.844 512.364ZM645.892 523L654.892 509.909H656.49L647.49 523H645.892Z" fill="white"/>
<path d="M624.585 545V531.909H629.009C630.036 531.909 630.875 532.094 631.527 532.465C632.183 532.832 632.669 533.328 632.984 533.955C633.3 534.581 633.457 535.28 633.457 536.051C633.457 536.822 633.3 537.523 632.984 538.154C632.673 538.785 632.192 539.288 631.54 539.663C630.888 540.033 630.053 540.219 629.034 540.219H625.864V538.812H628.983C629.686 538.812 630.251 538.691 630.677 538.448C631.103 538.205 631.412 537.877 631.604 537.464C631.8 537.046 631.898 536.575 631.898 536.051C631.898 535.527 631.8 535.058 631.604 534.645C631.412 534.232 631.101 533.908 630.67 533.673C630.24 533.435 629.669 533.315 628.957 533.315H626.17V545H624.585ZM635.806 545V535.182H637.264V536.665H637.366C637.545 536.179 637.869 535.785 638.338 535.482C638.806 535.18 639.335 535.028 639.923 535.028C640.034 535.028 640.172 535.031 640.338 535.035C640.505 535.039 640.63 535.045 640.716 535.054V536.588C640.664 536.575 640.547 536.556 640.364 536.531C640.185 536.501 639.995 536.486 639.795 536.486C639.318 536.486 638.892 536.586 638.517 536.786C638.146 536.982 637.852 537.255 637.635 537.604C637.422 537.95 637.315 538.344 637.315 538.787V545H635.806ZM646.321 545.205C645.375 545.205 644.559 544.996 643.873 544.578C643.191 544.156 642.665 543.568 642.294 542.814C641.928 542.055 641.745 541.173 641.745 540.168C641.745 539.162 641.928 538.276 642.294 537.509C642.665 536.737 643.181 536.136 643.841 535.706C644.506 535.271 645.282 535.054 646.168 535.054C646.679 535.054 647.184 535.139 647.683 535.31C648.181 535.48 648.635 535.757 649.044 536.141C649.453 536.52 649.779 537.023 650.022 537.649C650.265 538.276 650.387 539.047 650.387 539.963V540.602H642.819V539.298H648.853C648.853 538.744 648.742 538.25 648.52 537.815C648.303 537.381 647.992 537.038 647.587 536.786C647.186 536.535 646.713 536.409 646.168 536.409C645.567 536.409 645.047 536.558 644.608 536.857C644.174 537.151 643.839 537.534 643.605 538.007C643.37 538.48 643.253 538.987 643.253 539.528V540.398C643.253 541.139 643.381 541.768 643.637 542.283C643.897 542.795 644.257 543.185 644.717 543.453C645.177 543.717 645.712 543.849 646.321 543.849C646.718 543.849 647.076 543.794 647.395 543.683C647.719 543.568 647.998 543.398 648.233 543.172C648.467 542.942 648.648 542.656 648.776 542.315L650.233 542.724C650.08 543.219 649.822 543.653 649.46 544.028C649.098 544.399 648.65 544.689 648.118 544.898C647.585 545.102 646.986 545.205 646.321 545.205ZM658.306 538.685V540.091H652.579V538.685H658.306ZM667.915 537.381L666.56 537.764C666.475 537.538 666.349 537.319 666.183 537.106C666.021 536.888 665.8 536.71 665.518 536.569C665.237 536.428 664.877 536.358 664.438 536.358C663.837 536.358 663.336 536.496 662.936 536.773C662.54 537.046 662.341 537.393 662.341 537.815C662.341 538.19 662.478 538.487 662.751 538.704C663.023 538.921 663.449 539.102 664.029 539.247L665.486 539.605C666.364 539.818 667.018 540.144 667.449 540.583C667.879 541.018 668.094 541.578 668.094 542.264C668.094 542.827 667.932 543.33 667.608 543.773C667.289 544.216 666.841 544.565 666.266 544.821C665.691 545.077 665.022 545.205 664.259 545.205C663.258 545.205 662.429 544.987 661.773 544.553C661.116 544.118 660.701 543.483 660.526 542.648L661.958 542.29C662.094 542.818 662.352 543.214 662.731 543.479C663.115 543.743 663.616 543.875 664.233 543.875C664.937 543.875 665.495 543.726 665.908 543.428C666.326 543.125 666.535 542.763 666.535 542.341C666.535 542 666.415 541.714 666.177 541.484C665.938 541.25 665.572 541.075 665.077 540.96L663.441 540.577C662.542 540.364 661.881 540.033 661.459 539.586C661.042 539.134 660.833 538.57 660.833 537.892C660.833 537.338 660.988 536.848 661.3 536.422C661.615 535.996 662.043 535.661 662.584 535.418C663.13 535.175 663.748 535.054 664.438 535.054C665.41 535.054 666.172 535.267 666.726 535.693C667.285 536.119 667.681 536.682 667.915 537.381ZM673.254 545.23C672.632 545.23 672.067 545.113 671.56 544.879C671.053 544.64 670.651 544.297 670.352 543.849C670.054 543.398 669.905 542.852 669.905 542.213C669.905 541.651 670.016 541.195 670.237 540.845C670.459 540.491 670.755 540.214 671.126 540.014C671.496 539.814 671.906 539.665 672.353 539.567C672.805 539.464 673.259 539.384 673.714 539.324C674.311 539.247 674.795 539.19 675.165 539.151C675.54 539.109 675.813 539.038 675.984 538.94C676.158 538.842 676.246 538.672 676.246 538.429V538.378C676.246 537.747 676.073 537.257 675.728 536.908C675.387 536.558 674.869 536.384 674.175 536.384C673.455 536.384 672.89 536.541 672.481 536.857C672.072 537.172 671.784 537.509 671.618 537.866L670.186 537.355C670.442 536.759 670.783 536.294 671.209 535.962C671.639 535.625 672.108 535.391 672.615 535.259C673.126 535.122 673.629 535.054 674.124 535.054C674.439 535.054 674.801 535.092 675.21 535.169C675.624 535.241 676.022 535.393 676.406 535.623C676.793 535.853 677.115 536.2 677.371 536.665C677.626 537.129 677.754 537.751 677.754 538.531V545H676.246V543.67H676.169C676.067 543.884 675.896 544.112 675.658 544.354C675.419 544.597 675.102 544.804 674.705 544.974C674.309 545.145 673.825 545.23 673.254 545.23ZM673.484 543.875C674.081 543.875 674.584 543.758 674.993 543.523C675.406 543.289 675.717 542.987 675.926 542.616C676.139 542.245 676.246 541.855 676.246 541.446V540.065C676.182 540.142 676.041 540.212 675.824 540.276C675.611 540.336 675.364 540.389 675.082 540.436C674.805 540.479 674.535 540.517 674.271 540.551C674.011 540.581 673.8 540.607 673.638 540.628C673.246 540.679 672.879 540.762 672.538 540.877C672.202 540.988 671.929 541.156 671.72 541.382C671.516 541.604 671.413 541.906 671.413 542.29C671.413 542.814 671.607 543.21 671.995 543.479C672.387 543.743 672.884 543.875 673.484 543.875ZM682.016 531.909V545H680.508V531.909H682.016ZM688.896 545.205C687.95 545.205 687.134 544.996 686.447 544.578C685.766 544.156 685.239 543.568 684.869 542.814C684.502 542.055 684.319 541.173 684.319 540.168C684.319 539.162 684.502 538.276 684.869 537.509C685.239 536.737 685.755 536.136 686.415 535.706C687.08 535.271 687.856 535.054 688.742 535.054C689.254 535.054 689.759 535.139 690.257 535.31C690.756 535.48 691.21 535.757 691.619 536.141C692.028 536.52 692.354 537.023 692.597 537.649C692.839 538.276 692.961 539.047 692.961 539.963V540.602H685.393V539.298H691.427C691.427 538.744 691.316 538.25 691.094 537.815C690.877 537.381 690.566 537.038 690.161 536.786C689.761 536.535 689.288 536.409 688.742 536.409C688.141 536.409 687.621 536.558 687.183 536.857C686.748 537.151 686.413 537.534 686.179 538.007C685.945 538.48 685.827 538.987 685.827 539.528V540.398C685.827 541.139 685.955 541.768 686.211 542.283C686.471 542.795 686.831 543.185 687.291 543.453C687.751 543.717 688.286 543.849 688.896 543.849C689.292 543.849 689.65 543.794 689.969 543.683C690.293 543.568 690.572 543.398 690.807 543.172C691.041 542.942 691.222 542.656 691.35 542.315L692.808 542.724C692.654 543.219 692.396 543.653 692.034 544.028C691.672 544.399 691.224 544.689 690.692 544.898C690.159 545.102 689.56 545.205 688.896 545.205Z" fill="#CCCCCC"/>
<path d="M499.002 632.249C497.95 632.249 497.046 631.983 496.292 631.45C495.542 630.913 494.964 630.14 494.56 629.13C494.159 628.116 493.959 626.895 493.959 625.467C493.963 624.04 494.165 622.825 494.566 621.824C494.971 620.818 495.548 620.051 496.298 619.523C497.053 618.994 497.954 618.73 499.002 618.73C500.05 618.73 500.952 618.994 501.706 619.523C502.46 620.051 503.038 620.818 503.438 621.824C503.843 622.83 504.045 624.044 504.045 625.467C504.045 626.899 503.843 628.122 503.438 629.136C503.038 630.146 502.46 630.918 501.706 631.45C500.956 631.983 500.055 632.249 499.002 632.249ZM499.002 630.249C499.82 630.249 500.466 629.846 500.939 629.04C501.416 628.231 501.655 627.04 501.655 625.467C501.655 624.428 501.546 623.554 501.329 622.847C501.112 622.139 500.805 621.607 500.408 621.249C500.012 620.886 499.543 620.705 499.002 620.705C498.188 620.705 497.545 621.11 497.072 621.92C496.599 622.725 496.36 623.908 496.356 625.467C496.352 626.511 496.456 627.389 496.669 628.101C496.886 628.812 497.193 629.349 497.589 629.712C497.986 630.07 498.457 630.249 499.002 630.249ZM510.72 632.179C509.868 632.179 509.105 632.019 508.432 631.7C507.759 631.376 507.224 630.933 506.828 630.37C506.436 629.808 506.227 629.164 506.201 628.44H508.502C508.545 628.977 508.777 629.415 509.199 629.756C509.621 630.093 510.128 630.261 510.72 630.261C511.185 630.261 511.598 630.155 511.96 629.942C512.323 629.729 512.608 629.433 512.817 629.053C513.026 628.674 513.128 628.241 513.124 627.756C513.128 627.261 513.024 626.822 512.811 626.439C512.597 626.055 512.306 625.755 511.935 625.538C511.564 625.316 511.138 625.205 510.656 625.205C510.264 625.201 509.879 625.273 509.499 625.423C509.12 625.572 508.82 625.768 508.598 626.011L506.457 625.659L507.141 618.909H514.735V620.891H509.103L508.726 624.362H508.803C509.046 624.076 509.389 623.839 509.832 623.652C510.275 623.46 510.761 623.364 511.289 623.364C512.082 623.364 512.789 623.552 513.411 623.927C514.034 624.298 514.524 624.809 514.882 625.461C515.24 626.113 515.419 626.859 515.419 627.698C515.419 628.563 515.218 629.335 514.818 630.012C514.421 630.685 513.869 631.216 513.162 631.604C512.459 631.987 511.645 632.179 510.72 632.179ZM524.559 629.545V628.855C524.559 628.348 524.666 627.881 524.879 627.455C525.096 627.029 525.411 626.686 525.825 626.426C526.238 626.166 526.739 626.036 527.327 626.036C527.932 626.036 528.439 626.166 528.848 626.426C529.257 626.682 529.566 627.023 529.775 627.449C529.988 627.875 530.095 628.344 530.095 628.855V629.545C530.095 630.053 529.988 630.519 529.775 630.945C529.562 631.371 529.249 631.714 528.835 631.974C528.426 632.234 527.923 632.364 527.327 632.364C526.73 632.364 526.225 632.234 525.812 631.974C525.399 631.714 525.085 631.371 524.872 630.945C524.664 630.519 524.559 630.053 524.559 629.545ZM526.227 628.855V629.545C526.227 629.882 526.308 630.191 526.47 630.472C526.632 630.754 526.918 630.894 527.327 630.894C527.74 630.894 528.024 630.756 528.177 630.479C528.335 630.197 528.414 629.886 528.414 629.545V628.855C528.414 628.514 528.339 628.203 528.19 627.922C528.041 627.636 527.753 627.494 527.327 627.494C526.926 627.494 526.643 627.636 526.477 627.922C526.311 628.203 526.227 628.514 526.227 628.855ZM517.905 622.054V621.364C517.905 620.852 518.014 620.384 518.231 619.957C518.448 619.531 518.764 619.19 519.177 618.935C519.59 618.675 520.091 618.545 520.679 618.545C521.28 618.545 521.785 618.675 522.194 618.935C522.607 619.19 522.919 619.531 523.127 619.957C523.336 620.384 523.441 620.852 523.441 621.364V622.054C523.441 622.565 523.334 623.034 523.121 623.46C522.912 623.882 522.601 624.221 522.188 624.477C521.774 624.732 521.271 624.86 520.679 624.86C520.078 624.86 519.571 624.732 519.158 624.477C518.749 624.221 518.438 623.88 518.225 623.454C518.012 623.028 517.905 622.561 517.905 622.054ZM519.586 621.364V622.054C519.586 622.395 519.665 622.706 519.823 622.987C519.985 623.264 520.27 623.403 520.679 623.403C521.088 623.403 521.369 623.264 521.523 622.987C521.681 622.706 521.759 622.395 521.759 622.054V621.364C521.759 621.023 521.685 620.712 521.536 620.43C521.387 620.145 521.101 620.002 520.679 620.002C520.274 620.002 519.991 620.145 519.829 620.43C519.667 620.716 519.586 621.027 519.586 621.364ZM518.634 632L527.634 618.909H529.232L520.232 632H518.634Z" fill="white"/>
<path d="M494.585 654V640.909H496.17V652.594H502.256V654H494.585ZM504.506 654V644.182H506.014V654H504.506ZM505.273 642.545C504.979 642.545 504.725 642.445 504.512 642.245C504.303 642.045 504.199 641.804 504.199 641.523C504.199 641.241 504.303 641.001 504.512 640.8C504.725 640.6 504.979 640.5 505.273 640.5C505.567 640.5 505.818 640.6 506.027 640.8C506.24 641.001 506.347 641.241 506.347 641.523C506.347 641.804 506.24 642.045 506.027 642.245C505.818 642.445 505.567 642.545 505.273 642.545ZM515.476 657.682V652.491H515.348C515.237 652.67 515.08 652.896 514.875 653.169C514.671 653.437 514.379 653.678 513.999 653.891C513.62 654.1 513.115 654.205 512.485 654.205C511.666 654.205 510.944 653.998 510.318 653.585C509.691 653.167 509.201 652.579 508.847 651.82C508.494 651.058 508.317 650.156 508.317 649.116C508.317 648.085 508.494 647.19 508.847 646.432C509.201 645.673 509.693 645.087 510.324 644.674C510.955 644.261 511.683 644.054 512.51 644.054C513.149 644.054 513.654 644.161 514.025 644.374C514.4 644.582 514.686 644.821 514.882 645.089C515.082 645.354 515.237 645.571 515.348 645.741H515.527V644.182H516.985V657.682H515.476ZM512.689 652.849C513.294 652.849 513.806 652.692 514.223 652.376C514.641 652.057 514.958 651.616 515.176 651.053C515.393 650.487 515.502 649.832 515.502 649.091C515.502 648.358 515.395 647.717 515.182 647.167C514.969 646.613 514.654 646.183 514.236 645.876C513.818 645.565 513.303 645.409 512.689 645.409C512.05 645.409 511.517 645.573 511.091 645.901C510.669 646.225 510.352 646.666 510.139 647.224C509.93 647.778 509.825 648.401 509.825 649.091C509.825 649.79 509.932 650.425 510.145 650.996C510.362 651.562 510.682 652.014 511.104 652.351C511.53 652.683 512.058 652.849 512.689 652.849ZM525.933 649.986V644.182H527.442V654H525.933V652.338H525.831C525.601 652.837 525.243 653.261 524.757 653.61C524.271 653.955 523.658 654.128 522.916 654.128C522.303 654.128 521.757 653.994 521.28 653.725C520.803 653.452 520.428 653.043 520.155 652.498C519.882 651.948 519.746 651.256 519.746 650.42V644.182H521.254V650.318C521.254 651.034 521.455 651.605 521.855 652.031C522.26 652.457 522.776 652.67 523.402 652.67C523.777 652.67 524.159 652.575 524.546 652.383C524.938 652.191 525.267 651.897 525.531 651.501C525.799 651.104 525.933 650.599 525.933 649.986ZM530.205 654V644.182H531.713V654H530.205ZM530.972 642.545C530.678 642.545 530.424 642.445 530.211 642.245C530.002 642.045 529.898 641.804 529.898 641.523C529.898 641.241 530.002 641.001 530.211 640.8C530.424 640.6 530.678 640.5 530.972 640.5C531.266 640.5 531.517 640.6 531.726 640.8C531.939 641.001 532.046 641.241 532.046 641.523C532.046 641.804 531.939 642.045 531.726 642.245C531.517 642.445 531.266 642.545 530.972 642.545ZM538.184 654.205C537.366 654.205 536.643 653.998 536.017 653.585C535.39 653.167 534.9 652.579 534.547 651.82C534.193 651.058 534.016 650.156 534.016 649.116C534.016 648.085 534.193 647.19 534.547 646.432C534.9 645.673 535.393 645.087 536.023 644.674C536.654 644.261 537.383 644.054 538.209 644.054C538.849 644.054 539.354 644.161 539.724 644.374C540.099 644.582 540.385 644.821 540.581 645.089C540.781 645.354 540.937 645.571 541.047 645.741H541.175V640.909H542.684V654H541.226V652.491H541.047C540.937 652.67 540.779 652.896 540.574 653.169C540.37 653.437 540.078 653.678 539.699 653.891C539.319 654.1 538.814 654.205 538.184 654.205ZM538.388 652.849C538.993 652.849 539.505 652.692 539.922 652.376C540.34 652.057 540.657 651.616 540.875 651.053C541.092 650.487 541.201 649.832 541.201 649.091C541.201 648.358 541.094 647.717 540.881 647.167C540.668 646.613 540.353 646.183 539.935 645.876C539.518 645.565 539.002 645.409 538.388 645.409C537.749 645.409 537.216 645.573 536.79 645.901C536.368 646.225 536.051 646.666 535.838 647.224C535.629 647.778 535.525 648.401 535.525 649.091C535.525 649.79 535.631 650.425 535.844 650.996C536.062 651.562 536.381 652.014 536.803 652.351C537.229 652.683 537.758 652.849 538.388 652.849ZM545.656 654V644.182H547.165V654H545.656ZM546.423 642.545C546.129 642.545 545.876 642.445 545.662 642.245C545.454 642.045 545.349 641.804 545.349 641.523C545.349 641.241 545.454 641.001 545.662 640.8C545.876 640.6 546.129 640.5 546.423 640.5C546.717 640.5 546.969 640.6 547.177 640.8C547.39 641.001 547.497 641.241 547.497 641.523C547.497 641.804 547.39 642.045 547.177 642.245C546.969 642.445 546.717 642.545 546.423 642.545ZM554.197 644.182V645.46H549.109V644.182H554.197ZM550.592 641.83H552.101V651.188C552.101 651.614 552.163 651.933 552.286 652.146C552.414 652.355 552.576 652.496 552.772 652.568C552.972 652.636 553.183 652.67 553.405 652.67C553.571 652.67 553.707 652.662 553.814 652.645C553.92 652.624 554.006 652.607 554.07 652.594L554.376 653.949C554.274 653.987 554.131 654.026 553.948 654.064C553.765 654.107 553.533 654.128 553.251 654.128C552.825 654.128 552.408 654.036 551.999 653.853C551.594 653.67 551.257 653.391 550.989 653.016C550.724 652.641 550.592 652.168 550.592 651.597V641.83ZM557.438 657.682C557.183 657.682 556.955 657.661 556.754 657.618C556.554 657.58 556.415 657.541 556.339 657.503L556.722 656.173C557.089 656.267 557.413 656.301 557.694 656.276C557.975 656.25 558.224 656.124 558.442 655.898C558.663 655.677 558.866 655.317 559.049 654.818L559.33 654.051L555.7 644.182H557.336L560.046 652.006H560.148L562.859 644.182H564.495L560.327 655.432C560.14 655.939 559.908 656.359 559.631 656.691C559.354 657.028 559.032 657.277 558.665 657.439C558.303 657.601 557.894 657.682 557.438 657.682Z" fill="#CCCCCC"/>
<path d="M410.002 661.249C408.95 661.249 408.046 660.983 407.292 660.45C406.542 659.913 405.964 659.14 405.56 658.13C405.159 657.116 404.959 655.895 404.959 654.467C404.963 653.04 405.165 651.825 405.566 650.824C405.971 649.818 406.548 649.051 407.298 648.523C408.053 647.994 408.954 647.73 410.002 647.73C411.05 647.73 411.952 647.994 412.706 648.523C413.46 649.051 414.038 649.818 414.438 650.824C414.843 651.83 415.045 653.044 415.045 654.467C415.045 655.899 414.843 657.122 414.438 658.136C414.038 659.146 413.46 659.918 412.706 660.45C411.956 660.983 411.055 661.249 410.002 661.249ZM410.002 659.249C410.82 659.249 411.466 658.846 411.939 658.04C412.416 657.231 412.655 656.04 412.655 654.467C412.655 653.428 412.546 652.554 412.329 651.847C412.112 651.139 411.805 650.607 411.408 650.249C411.012 649.886 410.543 649.705 410.002 649.705C409.188 649.705 408.545 650.11 408.072 650.92C407.599 651.725 407.36 652.908 407.356 654.467C407.352 655.511 407.456 656.389 407.669 657.101C407.886 657.812 408.193 658.349 408.589 658.712C408.986 659.07 409.457 659.249 410.002 659.249ZM421.867 661.179C420.947 661.179 420.129 661.021 419.413 660.706C418.701 660.391 418.139 659.952 417.725 659.389C417.312 658.827 417.093 658.177 417.067 657.44H419.47C419.492 657.793 419.609 658.102 419.822 658.366C420.035 658.626 420.318 658.829 420.672 658.974C421.026 659.119 421.422 659.191 421.861 659.191C422.33 659.191 422.745 659.11 423.107 658.948C423.47 658.782 423.753 658.552 423.958 658.258C424.162 657.964 424.262 657.625 424.258 657.241C424.262 656.845 424.16 656.496 423.951 656.193C423.742 655.891 423.44 655.654 423.044 655.484C422.651 655.313 422.178 655.228 421.624 655.228H420.468V653.4H421.624C422.08 653.4 422.479 653.321 422.82 653.163C423.165 653.006 423.436 652.784 423.632 652.499C423.828 652.209 423.923 651.874 423.919 651.495C423.923 651.124 423.84 650.803 423.67 650.53C423.504 650.253 423.267 650.038 422.96 649.884C422.658 649.731 422.302 649.654 421.893 649.654C421.492 649.654 421.122 649.727 420.781 649.871C420.44 650.016 420.165 650.223 419.956 650.491C419.747 650.756 419.637 651.071 419.624 651.438H417.342C417.359 650.705 417.57 650.061 417.975 649.507C418.384 648.949 418.929 648.514 419.611 648.203C420.293 647.888 421.058 647.73 421.906 647.73C422.779 647.73 423.538 647.894 424.181 648.222C424.829 648.546 425.33 648.983 425.683 649.533C426.037 650.082 426.214 650.69 426.214 651.354C426.218 652.092 426.001 652.71 425.562 653.208C425.127 653.707 424.556 654.033 423.849 654.186V654.288C424.769 654.416 425.475 654.757 425.965 655.311C426.459 655.861 426.704 656.545 426.7 657.363C426.7 658.096 426.491 658.752 426.073 659.332C425.66 659.907 425.089 660.359 424.36 660.687C423.636 661.015 422.805 661.179 421.867 661.179ZM435.893 658.545V657.855C435.893 657.348 436 656.881 436.213 656.455C436.43 656.029 436.745 655.686 437.159 655.426C437.572 655.166 438.073 655.036 438.661 655.036C439.266 655.036 439.773 655.166 440.182 655.426C440.591 655.682 440.9 656.023 441.109 656.449C441.322 656.875 441.429 657.344 441.429 657.855V658.545C441.429 659.053 441.322 659.519 441.109 659.945C440.896 660.371 440.583 660.714 440.169 660.974C439.76 661.234 439.257 661.364 438.661 661.364C438.064 661.364 437.559 661.234 437.146 660.974C436.733 660.714 436.419 660.371 436.206 659.945C435.998 659.519 435.893 659.053 435.893 658.545ZM437.561 657.855V658.545C437.561 658.882 437.642 659.191 437.804 659.472C437.966 659.754 438.252 659.894 438.661 659.894C439.074 659.894 439.358 659.756 439.511 659.479C439.669 659.197 439.748 658.886 439.748 658.545V657.855C439.748 657.514 439.673 657.203 439.524 656.922C439.375 656.636 439.087 656.494 438.661 656.494C438.26 656.494 437.977 656.636 437.811 656.922C437.645 657.203 437.561 657.514 437.561 657.855ZM429.239 651.054V650.364C429.239 649.852 429.348 649.384 429.565 648.957C429.782 648.531 430.098 648.19 430.511 647.935C430.924 647.675 431.425 647.545 432.013 647.545C432.614 647.545 433.119 647.675 433.528 647.935C433.941 648.19 434.252 648.531 434.461 648.957C434.67 649.384 434.775 649.852 434.775 650.364V651.054C434.775 651.565 434.668 652.034 434.455 652.46C434.246 652.882 433.935 653.221 433.522 653.477C433.108 653.732 432.605 653.86 432.013 653.86C431.412 653.86 430.905 653.732 430.492 653.477C430.083 653.221 429.772 652.88 429.559 652.454C429.346 652.028 429.239 651.561 429.239 651.054ZM430.92 650.364V651.054C430.92 651.395 430.999 651.706 431.157 651.987C431.319 652.264 431.604 652.403 432.013 652.403C432.422 652.403 432.703 652.264 432.857 651.987C433.015 651.706 433.093 651.395 433.093 651.054V650.364C433.093 650.023 433.019 649.712 432.87 649.43C432.721 649.145 432.435 649.002 432.013 649.002C431.608 649.002 431.325 649.145 431.163 649.43C431.001 649.716 430.92 650.027 430.92 650.364ZM429.968 661L438.968 647.909H440.566L431.566 661H429.968Z" fill="white"/>
<path d="M412.744 673.182C412.668 672.534 412.357 672.031 411.811 671.673C411.266 671.315 410.597 671.136 409.804 671.136C409.224 671.136 408.717 671.23 408.283 671.418C407.852 671.605 407.516 671.863 407.273 672.191C407.034 672.519 406.915 672.892 406.915 673.31C406.915 673.659 406.998 673.96 407.164 674.211C407.335 674.458 407.552 674.665 407.816 674.831C408.08 674.993 408.357 675.127 408.647 675.234C408.937 675.336 409.203 675.419 409.446 675.483L410.776 675.841C411.116 675.93 411.496 676.054 411.913 676.212C412.335 676.369 412.738 676.585 413.121 676.857C413.509 677.126 413.829 677.471 414.08 677.893C414.332 678.315 414.457 678.832 414.457 679.446C414.457 680.153 414.272 680.793 413.901 681.364C413.535 681.935 412.998 682.388 412.29 682.725C411.587 683.062 410.733 683.23 409.727 683.23C408.79 683.23 407.978 683.079 407.292 682.776C406.61 682.474 406.073 682.052 405.681 681.511C405.293 680.969 405.074 680.341 405.023 679.625H406.659C406.702 680.119 406.868 680.528 407.158 680.852C407.452 681.172 407.822 681.411 408.27 681.568C408.722 681.722 409.207 681.798 409.727 681.798C410.332 681.798 410.876 681.7 411.357 681.504C411.839 681.304 412.22 681.027 412.501 680.673C412.783 680.315 412.923 679.898 412.923 679.42C412.923 678.986 412.802 678.632 412.559 678.359C412.316 678.087 411.996 677.865 411.6 677.695C411.204 677.524 410.776 677.375 410.315 677.247L408.705 676.787C407.682 676.493 406.872 676.073 406.276 675.528C405.679 674.982 405.381 674.268 405.381 673.386C405.381 672.653 405.579 672.014 405.975 671.469C406.376 670.919 406.913 670.493 407.586 670.19C408.263 669.884 409.02 669.73 409.855 669.73C410.699 669.73 411.449 669.881 412.105 670.184C412.761 670.482 413.281 670.891 413.665 671.411C414.053 671.931 414.257 672.521 414.278 673.182H412.744ZM421.129 673.182V674.46H416.041V673.182H421.129ZM417.524 670.83H419.032V680.188C419.032 680.614 419.094 680.933 419.218 681.146C419.346 681.355 419.508 681.496 419.704 681.568C419.904 681.636 420.115 681.67 420.336 681.67C420.503 681.67 420.639 681.662 420.746 681.645C420.852 681.624 420.937 681.607 421.001 681.594L421.308 682.949C421.206 682.987 421.063 683.026 420.88 683.064C420.697 683.107 420.464 683.128 420.183 683.128C419.757 683.128 419.339 683.036 418.93 682.853C418.525 682.67 418.189 682.391 417.92 682.016C417.656 681.641 417.524 681.168 417.524 680.597V670.83ZM426.287 683.23C425.665 683.23 425.101 683.113 424.594 682.879C424.086 682.64 423.684 682.297 423.385 681.849C423.087 681.398 422.938 680.852 422.938 680.213C422.938 679.651 423.049 679.195 423.27 678.845C423.492 678.491 423.788 678.214 424.159 678.014C424.53 677.814 424.939 677.665 425.386 677.567C425.838 677.464 426.292 677.384 426.748 677.324C427.344 677.247 427.828 677.19 428.199 677.151C428.574 677.109 428.846 677.038 429.017 676.94C429.192 676.842 429.279 676.672 429.279 676.429V676.378C429.279 675.747 429.106 675.257 428.761 674.908C428.42 674.558 427.903 674.384 427.208 674.384C426.488 674.384 425.923 674.541 425.514 674.857C425.105 675.172 424.817 675.509 424.651 675.866L423.219 675.355C423.475 674.759 423.816 674.294 424.242 673.962C424.672 673.625 425.141 673.391 425.648 673.259C426.16 673.122 426.662 673.054 427.157 673.054C427.472 673.054 427.834 673.092 428.243 673.169C428.657 673.241 429.055 673.393 429.439 673.623C429.827 673.853 430.148 674.2 430.404 674.665C430.66 675.129 430.787 675.751 430.787 676.531V683H429.279V681.67H429.202C429.1 681.884 428.93 682.112 428.691 682.354C428.452 682.597 428.135 682.804 427.738 682.974C427.342 683.145 426.858 683.23 426.287 683.23ZM426.518 681.875C427.114 681.875 427.617 681.758 428.026 681.523C428.439 681.289 428.751 680.987 428.959 680.616C429.172 680.245 429.279 679.855 429.279 679.446V678.065C429.215 678.142 429.074 678.212 428.857 678.276C428.644 678.336 428.397 678.389 428.116 678.436C427.839 678.479 427.568 678.517 427.304 678.551C427.044 678.581 426.833 678.607 426.671 678.628C426.279 678.679 425.912 678.762 425.572 678.877C425.235 678.988 424.962 679.156 424.753 679.382C424.549 679.604 424.447 679.906 424.447 680.29C424.447 680.814 424.64 681.21 425.028 681.479C425.42 681.743 425.917 681.875 426.518 681.875ZM434.947 679.42L434.922 677.554H435.228L439.524 673.182H441.39L436.814 677.81H436.686L434.947 679.42ZM433.541 683V669.909H435.049V683H433.541ZM439.779 683L435.944 678.142L437.018 677.094L441.697 683H439.779ZM447.044 683.205C446.098 683.205 445.282 682.996 444.596 682.578C443.914 682.156 443.388 681.568 443.017 680.814C442.651 680.055 442.467 679.173 442.467 678.168C442.467 677.162 442.651 676.276 443.017 675.509C443.388 674.737 443.903 674.136 444.564 673.706C445.229 673.271 446.004 673.054 446.891 673.054C447.402 673.054 447.907 673.139 448.406 673.31C448.904 673.48 449.358 673.757 449.767 674.141C450.176 674.52 450.502 675.023 450.745 675.649C450.988 676.276 451.109 677.047 451.109 677.963V678.602H443.541V677.298H449.575C449.575 676.744 449.464 676.25 449.243 675.815C449.026 675.381 448.714 675.038 448.31 674.786C447.909 674.535 447.436 674.409 446.891 674.409C446.29 674.409 445.77 674.558 445.331 674.857C444.896 675.151 444.562 675.534 444.327 676.007C444.093 676.48 443.976 676.987 443.976 677.528V678.398C443.976 679.139 444.104 679.768 444.359 680.283C444.619 680.795 444.979 681.185 445.44 681.453C445.9 681.717 446.435 681.849 447.044 681.849C447.44 681.849 447.798 681.794 448.118 681.683C448.442 681.568 448.721 681.398 448.955 681.172C449.19 680.942 449.371 680.656 449.499 680.315L450.956 680.724C450.803 681.219 450.545 681.653 450.183 682.028C449.82 682.399 449.373 682.689 448.84 682.898C448.308 683.102 447.709 683.205 447.044 683.205ZM458.671 683V669.909H463.094C464.117 669.909 464.957 670.084 465.613 670.433C466.269 670.778 466.755 671.254 467.07 671.859C467.386 672.464 467.543 673.152 467.543 673.923C467.543 674.695 467.386 675.379 467.07 675.975C466.755 676.572 466.271 677.04 465.619 677.381C464.967 677.718 464.134 677.886 463.12 677.886H459.54V676.455H463.069C463.768 676.455 464.33 676.352 464.756 676.148C465.187 675.943 465.498 675.653 465.69 675.278C465.886 674.899 465.984 674.447 465.984 673.923C465.984 673.399 465.886 672.941 465.69 672.549C465.494 672.157 465.18 671.854 464.75 671.641C464.32 671.424 463.751 671.315 463.043 671.315H460.256V683H458.671ZM464.833 677.119L468.055 683H466.214L463.043 677.119H464.833ZM473.991 683.205C473.045 683.205 472.229 682.996 471.543 682.578C470.861 682.156 470.335 681.568 469.964 680.814C469.598 680.055 469.415 679.173 469.415 678.168C469.415 677.162 469.598 676.276 469.964 675.509C470.335 674.737 470.851 674.136 471.511 673.706C472.176 673.271 472.952 673.054 473.838 673.054C474.349 673.054 474.854 673.139 475.353 673.31C475.851 673.48 476.305 673.757 476.714 674.141C477.123 674.52 477.449 675.023 477.692 675.649C477.935 676.276 478.057 677.047 478.057 677.963V678.602H470.488V677.298H476.523C476.523 676.744 476.412 676.25 476.19 675.815C475.973 675.381 475.662 675.038 475.257 674.786C474.856 674.535 474.383 674.409 473.838 674.409C473.237 674.409 472.717 674.558 472.278 674.857C471.844 675.151 471.509 675.534 471.275 676.007C471.04 676.48 470.923 676.987 470.923 677.528V678.398C470.923 679.139 471.051 679.768 471.307 680.283C471.567 680.795 471.927 681.185 472.387 681.453C472.847 681.717 473.382 681.849 473.991 681.849C474.388 681.849 474.746 681.794 475.065 681.683C475.389 681.568 475.668 681.398 475.903 681.172C476.137 680.942 476.318 680.656 476.446 680.315L477.903 680.724C477.75 681.219 477.492 681.653 477.13 682.028C476.768 682.399 476.32 682.689 475.787 682.898C475.255 683.102 474.656 683.205 473.991 683.205ZM482.576 683L479.584 673.182H481.17L483.292 680.699H483.394L485.491 673.182H487.101L489.172 680.673H489.275L491.397 673.182H492.982L489.991 683H488.508L486.36 675.457H486.206L484.059 683H482.576ZM497.866 683.23C497.243 683.23 496.679 683.113 496.172 682.879C495.665 682.64 495.262 682.297 494.964 681.849C494.665 681.398 494.516 680.852 494.516 680.213C494.516 679.651 494.627 679.195 494.849 678.845C495.07 678.491 495.366 678.214 495.737 678.014C496.108 677.814 496.517 677.665 496.964 677.567C497.416 677.464 497.87 677.384 498.326 677.324C498.922 677.247 499.406 677.19 499.777 677.151C500.152 677.109 500.425 677.038 500.595 676.94C500.77 676.842 500.857 676.672 500.857 676.429V676.378C500.857 675.747 500.684 675.257 500.339 674.908C499.998 674.558 499.481 674.384 498.786 674.384C498.066 674.384 497.501 674.541 497.092 674.857C496.683 675.172 496.395 675.509 496.229 675.866L494.797 675.355C495.053 674.759 495.394 674.294 495.82 673.962C496.251 673.625 496.719 673.391 497.226 673.259C497.738 673.122 498.241 673.054 498.735 673.054C499.05 673.054 499.412 673.092 499.822 673.169C500.235 673.241 500.633 673.393 501.017 673.623C501.405 673.853 501.726 674.2 501.982 674.665C502.238 675.129 502.366 675.751 502.366 676.531V683H500.857V681.67H500.78C500.678 681.884 500.508 682.112 500.269 682.354C500.03 682.597 499.713 682.804 499.317 682.974C498.92 683.145 498.437 683.23 497.866 683.23ZM498.096 681.875C498.692 681.875 499.195 681.758 499.604 681.523C500.018 681.289 500.329 680.987 500.537 680.616C500.751 680.245 500.857 679.855 500.857 679.446V678.065C500.793 678.142 500.653 678.212 500.435 678.276C500.222 678.336 499.975 678.389 499.694 678.436C499.417 678.479 499.146 678.517 498.882 678.551C498.622 678.581 498.411 678.607 498.249 678.628C497.857 678.679 497.491 678.762 497.15 678.877C496.813 678.988 496.54 679.156 496.331 679.382C496.127 679.604 496.025 679.906 496.025 680.29C496.025 680.814 496.219 681.21 496.606 681.479C496.998 681.743 497.495 681.875 498.096 681.875ZM505.119 683V673.182H506.576V674.665H506.679C506.858 674.179 507.181 673.785 507.65 673.482C508.119 673.18 508.647 673.028 509.235 673.028C509.346 673.028 509.485 673.031 509.651 673.035C509.817 673.039 509.943 673.045 510.028 673.054V674.588C509.977 674.575 509.86 674.556 509.676 674.531C509.498 674.501 509.308 674.486 509.108 674.486C508.63 674.486 508.204 674.586 507.829 674.786C507.458 674.982 507.164 675.255 506.947 675.604C506.734 675.95 506.627 676.344 506.627 676.787V683H505.119ZM515.225 683.205C514.407 683.205 513.684 682.998 513.058 682.585C512.431 682.167 511.941 681.579 511.588 680.82C511.234 680.058 511.057 679.156 511.057 678.116C511.057 677.085 511.234 676.19 511.588 675.432C511.941 674.673 512.434 674.087 513.064 673.674C513.695 673.261 514.424 673.054 515.25 673.054C515.89 673.054 516.395 673.161 516.765 673.374C517.14 673.582 517.426 673.821 517.622 674.089C517.822 674.354 517.978 674.571 518.088 674.741H518.216V669.909H519.725V683H518.267V681.491H518.088C517.978 681.67 517.82 681.896 517.615 682.169C517.411 682.437 517.119 682.678 516.74 682.891C516.36 683.1 515.855 683.205 515.225 683.205ZM515.429 681.849C516.034 681.849 516.546 681.692 516.963 681.376C517.381 681.057 517.699 680.616 517.916 680.053C518.133 679.487 518.242 678.832 518.242 678.091C518.242 677.358 518.135 676.717 517.922 676.167C517.709 675.613 517.394 675.183 516.976 674.876C516.559 674.565 516.043 674.409 515.429 674.409C514.79 674.409 514.257 674.573 513.831 674.901C513.409 675.225 513.092 675.666 512.879 676.224C512.67 676.778 512.566 677.401 512.566 678.091C512.566 678.79 512.672 679.425 512.885 679.996C513.103 680.562 513.422 681.014 513.844 681.351C514.27 681.683 514.799 681.849 515.429 681.849ZM529.652 675.381L528.297 675.764C528.211 675.538 528.086 675.319 527.919 675.106C527.757 674.888 527.536 674.71 527.255 674.569C526.973 674.428 526.613 674.358 526.174 674.358C525.574 674.358 525.073 674.496 524.672 674.773C524.276 675.046 524.078 675.393 524.078 675.815C524.078 676.19 524.214 676.487 524.487 676.704C524.76 676.921 525.186 677.102 525.765 677.247L527.223 677.605C528.1 677.818 528.755 678.144 529.185 678.583C529.615 679.018 529.831 679.578 529.831 680.264C529.831 680.827 529.669 681.33 529.345 681.773C529.025 682.216 528.578 682.565 528.002 682.821C527.427 683.077 526.758 683.205 525.995 683.205C524.994 683.205 524.165 682.987 523.509 682.553C522.853 682.118 522.437 681.483 522.262 680.648L523.694 680.29C523.831 680.818 524.088 681.214 524.468 681.479C524.851 681.743 525.352 681.875 525.97 681.875C526.673 681.875 527.231 681.726 527.645 681.428C528.062 681.125 528.271 680.763 528.271 680.341C528.271 680 528.152 679.714 527.913 679.484C527.674 679.25 527.308 679.075 526.814 678.96L525.177 678.577C524.278 678.364 523.618 678.033 523.196 677.586C522.778 677.134 522.569 676.57 522.569 675.892C522.569 675.338 522.725 674.848 523.036 674.422C523.351 673.996 523.779 673.661 524.321 673.418C524.866 673.175 525.484 673.054 526.174 673.054C527.146 673.054 527.909 673.267 528.463 673.693C529.021 674.119 529.417 674.682 529.652 675.381Z" fill="#CCCCCC"/>
<path d="M336.002 699.249C334.95 699.249 334.046 698.983 333.292 698.45C332.542 697.913 331.964 697.14 331.56 696.13C331.159 695.116 330.959 693.895 330.959 692.467C330.963 691.04 331.165 689.825 331.566 688.824C331.971 687.818 332.548 687.051 333.298 686.523C334.053 685.994 334.954 685.73 336.002 685.73C337.05 685.73 337.952 685.994 338.706 686.523C339.46 687.051 340.038 687.818 340.438 688.824C340.843 689.83 341.045 691.044 341.045 692.467C341.045 693.899 340.843 695.122 340.438 696.136C340.038 697.146 339.46 697.918 338.706 698.45C337.956 698.983 337.055 699.249 336.002 699.249ZM336.002 697.249C336.82 697.249 337.466 696.846 337.939 696.04C338.416 695.231 338.655 694.04 338.655 692.467C338.655 691.428 338.546 690.554 338.329 689.847C338.112 689.139 337.805 688.607 337.408 688.249C337.012 687.886 336.543 687.705 336.002 687.705C335.188 687.705 334.545 688.11 334.072 688.92C333.599 689.725 333.36 690.908 333.356 692.467C333.352 693.511 333.456 694.389 333.669 695.101C333.886 695.812 334.193 696.349 334.589 696.712C334.986 697.07 335.457 697.249 336.002 697.249ZM348.494 685.909V699H346.122V688.217H346.046L342.984 690.173V687.999L346.237 685.909H348.494ZM358.817 696.545V695.855C358.817 695.348 358.923 694.881 359.137 694.455C359.354 694.029 359.669 693.686 360.083 693.426C360.496 693.166 360.997 693.036 361.585 693.036C362.19 693.036 362.697 693.166 363.106 693.426C363.515 693.682 363.824 694.023 364.033 694.449C364.246 694.875 364.352 695.344 364.352 695.855V696.545C364.352 697.053 364.246 697.519 364.033 697.945C363.82 698.371 363.507 698.714 363.093 698.974C362.684 699.234 362.181 699.364 361.585 699.364C360.988 699.364 360.483 699.234 360.07 698.974C359.656 698.714 359.343 698.371 359.13 697.945C358.921 697.519 358.817 697.053 358.817 696.545ZM360.485 695.855V696.545C360.485 696.882 360.566 697.191 360.728 697.472C360.89 697.754 361.176 697.894 361.585 697.894C361.998 697.894 362.281 697.756 362.435 697.479C362.593 697.197 362.671 696.886 362.671 696.545V695.855C362.671 695.514 362.597 695.203 362.448 694.922C362.298 694.636 362.011 694.494 361.585 694.494C361.184 694.494 360.901 694.636 360.735 694.922C360.568 695.203 360.485 695.514 360.485 695.855ZM352.163 689.054V688.364C352.163 687.852 352.271 687.384 352.489 686.957C352.706 686.531 353.021 686.19 353.435 685.935C353.848 685.675 354.349 685.545 354.937 685.545C355.538 685.545 356.043 685.675 356.452 685.935C356.865 686.19 357.176 686.531 357.385 686.957C357.594 687.384 357.698 687.852 357.698 688.364V689.054C357.698 689.565 357.592 690.034 357.379 690.46C357.17 690.882 356.859 691.221 356.445 691.477C356.032 691.732 355.529 691.86 354.937 691.86C354.336 691.86 353.829 691.732 353.416 691.477C353.007 691.221 352.695 690.88 352.482 690.454C352.269 690.028 352.163 689.561 352.163 689.054ZM353.844 688.364V689.054C353.844 689.395 353.923 689.706 354.08 689.987C354.242 690.264 354.528 690.403 354.937 690.403C355.346 690.403 355.627 690.264 355.781 689.987C355.938 689.706 356.017 689.395 356.017 689.054V688.364C356.017 688.023 355.943 687.712 355.794 687.43C355.644 687.145 355.359 687.002 354.937 687.002C354.532 687.002 354.249 687.145 354.087 687.43C353.925 687.716 353.844 688.027 353.844 688.364ZM352.892 699L361.892 685.909H363.49L354.49 699H352.892Z" fill="white"/>
<path d="M331.585 707.909H333.477L337.926 718.776H338.08L342.528 707.909H344.42V721H342.938V711.054H342.81L338.719 721H337.287L333.196 711.054H333.068V721H331.585V707.909ZM350.284 721.23C349.661 721.23 349.097 721.113 348.59 720.879C348.083 720.64 347.68 720.297 347.382 719.849C347.083 719.398 346.934 718.852 346.934 718.213C346.934 717.651 347.045 717.195 347.267 716.845C347.488 716.491 347.784 716.214 348.155 716.014C348.526 715.814 348.935 715.665 349.382 715.567C349.834 715.464 350.288 715.384 350.744 715.324C351.34 715.247 351.824 715.19 352.195 715.151C352.57 715.109 352.843 715.038 353.013 714.94C353.188 714.842 353.275 714.672 353.275 714.429V714.378C353.275 713.747 353.102 713.257 352.757 712.908C352.416 712.558 351.899 712.384 351.204 712.384C350.484 712.384 349.919 712.541 349.51 712.857C349.101 713.172 348.813 713.509 348.647 713.866L347.215 713.355C347.471 712.759 347.812 712.294 348.238 711.962C348.669 711.625 349.137 711.391 349.644 711.259C350.156 711.122 350.659 711.054 351.153 711.054C351.468 711.054 351.83 711.092 352.24 711.169C352.653 711.241 353.051 711.393 353.435 711.623C353.823 711.853 354.144 712.2 354.4 712.665C354.656 713.129 354.784 713.751 354.784 714.531V721H353.275V719.67H353.198C353.096 719.884 352.926 720.112 352.687 720.354C352.448 720.597 352.131 720.804 351.735 720.974C351.338 721.145 350.855 721.23 350.284 721.23ZM350.514 719.875C351.11 719.875 351.613 719.758 352.022 719.523C352.436 719.289 352.747 718.987 352.955 718.616C353.169 718.245 353.275 717.855 353.275 717.446V716.065C353.211 716.142 353.07 716.212 352.853 716.276C352.64 716.336 352.393 716.389 352.112 716.436C351.835 716.479 351.564 716.517 351.3 716.551C351.04 716.581 350.829 716.607 350.667 716.628C350.275 716.679 349.909 716.762 349.568 716.877C349.231 716.988 348.958 717.156 348.749 717.382C348.545 717.604 348.443 717.906 348.443 718.29C348.443 718.814 348.637 719.21 349.024 719.479C349.416 719.743 349.913 719.875 350.514 719.875ZM357.537 721V711.182H358.994V712.665H359.097C359.276 712.179 359.599 711.785 360.068 711.482C360.537 711.18 361.065 711.028 361.653 711.028C361.764 711.028 361.903 711.031 362.069 711.035C362.235 711.039 362.361 711.045 362.446 711.054V712.588C362.395 712.575 362.278 712.556 362.094 712.531C361.915 712.501 361.726 712.486 361.526 712.486C361.048 712.486 360.622 712.586 360.247 712.786C359.876 712.982 359.582 713.255 359.365 713.604C359.152 713.95 359.045 714.344 359.045 714.787V721H357.537ZM365.64 717.42L365.615 715.554H365.922L370.217 711.182H372.084L367.507 715.81H367.379L365.64 717.42ZM364.234 721V707.909H365.743V721H364.234ZM370.473 721L366.638 716.142L367.711 715.094L372.39 721H370.473ZM377.737 721.205C376.791 721.205 375.975 720.996 375.289 720.578C374.607 720.156 374.081 719.568 373.71 718.814C373.344 718.055 373.161 717.173 373.161 716.168C373.161 715.162 373.344 714.276 373.71 713.509C374.081 712.737 374.597 712.136 375.257 711.706C375.922 711.271 376.698 711.054 377.584 711.054C378.095 711.054 378.6 711.139 379.099 711.31C379.597 711.48 380.051 711.757 380.46 712.141C380.869 712.52 381.195 713.023 381.438 713.649C381.681 714.276 381.803 715.047 381.803 715.963V716.602H374.235V715.298H380.269C380.269 714.744 380.158 714.25 379.936 713.815C379.719 713.381 379.408 713.038 379.003 712.786C378.602 712.535 378.129 712.409 377.584 712.409C376.983 712.409 376.463 712.558 376.024 712.857C375.59 713.151 375.255 713.534 375.021 714.007C374.786 714.48 374.669 714.987 374.669 715.528V716.398C374.669 717.139 374.797 717.768 375.053 718.283C375.313 718.795 375.673 719.185 376.133 719.453C376.593 719.717 377.128 719.849 377.737 719.849C378.134 719.849 378.492 719.794 378.811 719.683C379.135 719.568 379.414 719.398 379.649 719.172C379.883 718.942 380.064 718.656 380.192 718.315L381.649 718.724C381.496 719.219 381.238 719.653 380.876 720.028C380.514 720.399 380.066 720.689 379.534 720.898C379.001 721.102 378.402 721.205 377.737 721.205ZM388.367 711.182V712.46H383.279V711.182H388.367ZM384.762 708.83H386.271V718.188C386.271 718.614 386.333 718.933 386.456 719.146C386.584 719.355 386.746 719.496 386.942 719.568C387.142 719.636 387.353 719.67 387.575 719.67C387.741 719.67 387.877 719.662 387.984 719.645C388.09 719.624 388.176 719.607 388.24 719.594L388.546 720.949C388.444 720.987 388.301 721.026 388.118 721.064C387.935 721.107 387.703 721.128 387.421 721.128C386.995 721.128 386.578 721.036 386.169 720.853C385.764 720.67 385.427 720.391 385.159 720.016C384.894 719.641 384.762 719.168 384.762 718.597V708.83ZM390.637 721V711.182H392.145V721H390.637ZM391.404 709.545C391.11 709.545 390.856 709.445 390.643 709.245C390.434 709.045 390.33 708.804 390.33 708.523C390.33 708.241 390.434 708.001 390.643 707.8C390.856 707.6 391.11 707.5 391.404 707.5C391.698 707.5 391.949 707.6 392.158 707.8C392.371 708.001 392.477 708.241 392.477 708.523C392.477 708.804 392.371 709.045 392.158 709.245C391.949 709.445 391.698 709.545 391.404 709.545ZM396.417 715.094V721H394.908V711.182H396.365V712.716H396.493C396.723 712.217 397.073 711.817 397.542 711.514C398.01 711.207 398.615 711.054 399.357 711.054C400.022 711.054 400.603 711.19 401.102 711.463C401.6 711.732 401.988 712.141 402.265 712.69C402.542 713.236 402.681 713.926 402.681 714.761V721H401.172V714.864C401.172 714.092 400.972 713.491 400.571 713.061C400.171 712.626 399.621 712.409 398.922 712.409C398.441 712.409 398.01 712.513 397.631 712.722C397.256 712.931 396.96 713.236 396.743 713.636C396.525 714.037 396.417 714.523 396.417 715.094ZM409.4 724.886C408.672 724.886 408.045 724.793 407.521 724.605C406.997 724.422 406.56 724.179 406.211 723.876C405.866 723.578 405.591 723.259 405.386 722.918L406.588 722.074C406.724 722.253 406.897 722.457 407.106 722.688C407.314 722.922 407.6 723.124 407.962 723.295C408.329 723.469 408.808 723.557 409.4 723.557C410.193 723.557 410.847 723.365 411.363 722.982C411.878 722.598 412.136 721.997 412.136 721.179V719.185H412.008C411.898 719.364 411.74 719.585 411.535 719.849C411.335 720.109 411.045 720.342 410.666 720.546C410.291 720.746 409.784 720.847 409.145 720.847C408.352 720.847 407.64 720.659 407.01 720.284C406.383 719.909 405.887 719.364 405.52 718.648C405.158 717.932 404.977 717.062 404.977 716.04C404.977 715.034 405.154 714.158 405.508 713.413C405.861 712.663 406.354 712.083 406.984 711.674C407.615 711.261 408.344 711.054 409.17 711.054C409.809 711.054 410.317 711.161 410.692 711.374C411.071 711.582 411.361 711.821 411.561 712.089C411.765 712.354 411.923 712.571 412.034 712.741H412.187V711.182H413.645V721.281C413.645 722.125 413.453 722.811 413.069 723.339C412.69 723.872 412.179 724.262 411.535 724.509C410.896 724.761 410.184 724.886 409.4 724.886ZM409.349 719.491C409.954 719.491 410.466 719.353 410.883 719.076C411.301 718.799 411.618 718.401 411.836 717.881C412.053 717.361 412.162 716.739 412.162 716.014C412.162 715.307 412.055 714.683 411.842 714.141C411.629 713.6 411.314 713.176 410.896 712.869C410.479 712.562 409.963 712.409 409.349 712.409C408.71 712.409 408.177 712.571 407.751 712.895C407.329 713.219 407.012 713.653 406.799 714.199C406.59 714.744 406.486 715.349 406.486 716.014C406.486 716.696 406.592 717.299 406.805 717.823C407.023 718.343 407.342 718.752 407.764 719.05C408.19 719.344 408.719 719.491 409.349 719.491Z" fill="#CCCCCC"/>
<defs>
<filter id="filter0_f_183_322" x="0" y="39" width="735" height="737" filterUnits="userSpaceOnUse" color-interpolation-filters="sRGB">
<feFlood flood-opacity="0" result="BackgroundImageFix"/>
<feBlend mode="normal" in="SourceGraphic" in2="BackgroundImageFix" result="shape"/>
<feGaussianBlur stdDeviation="75" result="effect1_foregroundBlur_183_322"/>
</filter>
<filter id="filter1_d_183_322" x="378.46" y="539.558" width="84.7924" height="101.195" filterUnits="userSpaceOnUse" color-interpolation-filters="sRGB">
<feFlood flood-opacity="0" result="BackgroundImageFix"/>
<feColorMatrix in="SourceAlpha" type="matrix" values="0 0 0 0 0 0 0 0 0 0 0 0 0 0 0 0 0 0 127 0" result="hardAlpha"/>
<feOffset dy="10"/>
<feGaussianBlur stdDeviation="2"/>
<feComposite in2="hardAlpha" operator="out"/>
<feColorMatrix type="matrix" values="0 0 0 0 0 0 0 0 0 0 0 0 0 0 0 0 0 0 0.25 0"/>
<feBlend mode="normal" in2="BackgroundImageFix" result="effect1_dropShadow_183_322"/>
<feBlend mode="normal" in="SourceGraphic" in2="effect1_dropShadow_183_322" result="shape"/>
</filter>
<filter id="filter2_d_183_322" x="417.825" y="522.539" width="99.9832" height="110.357" filterUnits="userSpaceOnUse" color-interpolation-filters="sRGB">
<feFlood flood-opacity="0" result="BackgroundImageFix"/>
<feColorMatrix in="SourceAlpha" type="matrix" values="0 0 0 0 0 0 0 0 0 0 0 0 0 0 0 0 0 0 127 0" result="hardAlpha"/>
<feOffset dy="10"/>
<feGaussianBlur stdDeviation="2"/>
<feComposite in2="hardAlpha" operator="out"/>
<feColorMatrix type="matrix" values="0 0 0 0 0 0 0 0 0 0 0 0 0 0 0 0 0 0 0.25 0"/>
<feBlend mode="normal" in2="BackgroundImageFix" result="effect1_dropShadow_183_322"/>
<feBlend mode="normal" in="SourceGraphic" in2="effect1_dropShadow_183_322" result="shape"/>
</filter>
<filter id="filter3_d_183_322" x="452.661" y="406.178" width="148.739" height="199.465" filterUnits="userSpaceOnUse" color-interpolation-filters="sRGB">
<feFlood flood-opacity="0" result="BackgroundImageFix"/>
<feColorMatrix in="SourceAlpha" type="matrix" values="0 0 0 0 0 0 0 0 0 0 0 0 0 0 0 0 0 0 127 0" result="hardAlpha"/>
<feOffset dy="9"/>
<feGaussianBlur stdDeviation="2"/>
<feComposite in2="hardAlpha" operator="out"/>
<feColorMatrix type="matrix" values="0 0 0 0 0 0 0 0 0 0 0 0 0 0 0 0 0 0 0.25 0"/>
<feBlend mode="normal" in2="BackgroundImageFix" result="effect1_dropShadow_183_322"/>
<feBlend mode="normal" in="SourceGraphic" in2="effect1_dropShadow_183_322" result="shape"/>
</filter>
<filter id="filter4_d_183_322" x="438.362" y="225.779" width="179.101" height="199.586" filterUnits="userSpaceOnUse" color-interpolation-filters="sRGB">
<feFlood flood-opacity="0" result="BackgroundImageFix"/>
<feColorMatrix in="SourceAlpha" type="matrix" values="0 0 0 0 0 0 0 0 0 0 0 0 0 0 0 0 0 0 127 0" result="hardAlpha"/>
<feOffset dx="10" dy="8"/>
<feGaussianBlur stdDeviation="2"/>
<feComposite in2="hardAlpha" operator="out"/>
<feColorMatrix type="matrix" values="0 0 0 0 0 0 0 0 0 0 0 0 0 0 0 0 0 0 0.25 0"/>
<feBlend mode="normal" in2="BackgroundImageFix" result="effect1_dropShadow_183_322"/>
<feBlend mode="normal" in="SourceGraphic" in2="effect1_dropShadow_183_322" result="shape"/>
</filter>
<filter id="filter5_d_183_322" x="321.32" y="165" width="234.286" height="168.187" filterUnits="userSpaceOnUse" color-interpolation-filters="sRGB">
<feFlood flood-opacity="0" result="BackgroundImageFix"/>
<feColorMatrix in="SourceAlpha" type="matrix" values="0 0 0 0 0 0 0 0 0 0 0 0 0 0 0 0 0 0 127 0" result="hardAlpha"/>
<feOffset dx="7" dy="4"/>
<feGaussianBlur stdDeviation="2"/>
<feComposite in2="hardAlpha" operator="out"/>
<feColorMatrix type="matrix" values="0 0 0 0 0 0 0 0 0 0 0 0 0 0 0 0 0 0 0.25 0"/>
<feBlend mode="normal" in2="BackgroundImageFix" result="effect1_dropShadow_183_322"/>
<feBlend mode="normal" in="SourceGraphic" in2="effect1_dropShadow_183_322" result="shape"/>
</filter>
<filter id="filter6_d_183_322" x="138.983" y="159.525" width="216.996" height="200.167" filterUnits="userSpaceOnUse" color-interpolation-filters="sRGB">
<feFlood flood-opacity="0" result="BackgroundImageFix"/>
<feColorMatrix in="SourceAlpha" type="matrix" values="0 0 0 0 0 0 0 0 0 0 0 0 0 0 0 0 0 0 127 0" result="hardAlpha"/>
<feOffset dx="7" dy="3"/>
<feGaussianBlur stdDeviation="2"/>
<feComposite in2="hardAlpha" operator="out"/>
<feColorMatrix type="matrix" values="0 0 0 0 0 0 0 0 0 0 0 0 0 0 0 0 0 0 0.25 0"/>
<feBlend mode="normal" in2="BackgroundImageFix" result="effect1_dropShadow_183_322"/>
<feBlend mode="normal" in="SourceGraphic" in2="effect1_dropShadow_183_322" result="shape"/>
</filter>
<filter id="filter7_d_183_322" x="116" y="311.988" width="252.569" height="366.977" filterUnits="userSpaceOnUse" color-interpolation-filters="sRGB">
<feFlood flood-opacity="0" result="BackgroundImageFix"/>
<feColorMatrix in="SourceAlpha" type="matrix" values="0 0 0 0 0 0 0 0 0 0 0 0 0 0 0 0 0 0 127 0" result="hardAlpha"/>
<feOffset dx="13" dy="4"/>
<feGaussianBlur stdDeviation="2"/>
<feComposite in2="hardAlpha" operator="out"/>
<feColorMatrix type="matrix" values="0 0 0 0 0 0 0 0 0 0 0 0 0 0 0 0 0 0 0.25 0"/>
<feBlend mode="normal" in2="BackgroundImageFix" result="effect1_dropShadow_183_322"/>
<feBlend mode="normal" in="SourceGraphic" in2="effect1_dropShadow_183_322" result="shape"/>
</filter>
</defs>
</svg>
